<svg version="1.1" xmlns="http://www.w3.org/2000/svg" width="500px" height="500px" transform="rotate(0) scale(1, 1)">
<path d="M0 0 C3.37402968 1.41098277 5.01708631 2.97248276 7.13671875 5.9296875 C7.99523437 7.11304688 7.99523437 7.11304688 8.87109375 8.3203125 C9.47050781 9.16335937 10.06992187 10.00640625 10.6875 10.875 C11.95144128 12.6226719 13.21576324 14.37006855 14.48046875 16.1171875 C15.08938965 16.9637793 15.69831055 17.81037109 16.32568359 18.68261719 C18.34895572 21.48298159 20.41584435 24.24467558 22.5 27 C28.18989443 34.56171016 33.79058981 42.18910176 39.39208984 49.81640625 C40.81369075 51.74698604 42.24258409 53.67177462 43.67578125 55.59375 C44.40152344 56.5734375 45.12726563 57.553125 45.875 58.5625 C46.49117188 59.38878906 47.10734375 60.21507812 47.7421875 61.06640625 C49 63 49 63 49 65 C49.66 65 50.32 65 51 65 C51 65.66 51 66.32 51 67 C58.63944617 64.62141786 65.94391567 61.79359413 73.26953125 58.58203125 C77.91581073 56.57689965 82.65561454 54.82967428 87.40722656 53.09228516 C90.58139474 51.92744532 93.70014122 50.70459114 96.78515625 49.32421875 C100 48 100 48 103 48 C103.50615298 49.26839526 104.00469099 50.53983102 104.5 51.8125 C104.7784375 52.52019531 105.056875 53.22789062 105.34375 53.95703125 C106 56 106 56 106 59 C105.13503906 59.31710938 104.27007812 59.63421875 103.37890625 59.9609375 C93.34714753 63.66959881 83.41881631 67.60962661 73.51977539 71.65966797 C72.48844482 72.07748535 71.45711426 72.49530273 70.39453125 72.92578125 C69.47518799 73.30130127 68.55584473 73.67682129 67.60864258 74.0637207 C65.07770682 74.9721099 62.6467451 75.5467759 60 76 C63.6850575 83.50588027 68.60050658 89.92504683 73.76757812 96.44287109 C75.5698474 98.71998548 77.34636578 101.01690502 79.125 103.3125 C80.08296101 104.54195687 81.04113125 105.77125097 82 107 C89.46770667 99.00187678 96.56079418 90.80996958 103.39306641 82.25585938 C104.8550942 80.43208773 106.33254837 78.62174087 107.8125 76.8125 C108.49699219 75.94637085 108.49699219 75.94637085 109.1953125 75.06274414 C110.51953125 73.45703125 110.51953125 73.45703125 113 71 C118.30479934 71 119.18982627 72.5362057 123 76 C120.50925549 80.58087977 117.31393709 84.25044111 113.875 88.125 C112.70067847 89.4638408 111.52750687 90.80369107 110.35546875 92.14453125 C109.78231934 92.80018066 109.20916992 93.45583008 108.61865234 94.13134766 C102.18375267 101.56011419 96.12017006 109.31226595 90 117 C92.97834083 122.52913395 96.4423425 127.37582961 100.3125 132.3125 C114 150.00394405 114 150.00394405 114 153 C114.66 153 115.32 153 116 153 C117.79083852 155.30166787 119.47259242 157.60238901 121.125 160 C121.59292969 160.66773438 122.06085938 161.33546875 122.54296875 162.0234375 C123.70126236 163.67814266 124.85139765 165.33855307 126 167 C123.45831249 169.57359154 121.01881396 171.98745736 118 174 C117.34 174 116.68 174 116 174 C114.546875 172.26171875 114.546875 172.26171875 112.75 169.6875 C112.03972656 168.68589844 111.32945312 167.68429687 110.59765625 166.65234375 C110.1917627 166.0785498 109.78586914 165.50475586 109.36767578 164.91357422 C106.68504981 161.16019643 103.92954894 157.46004942 101.1875 153.75 C99.98036896 152.11075056 98.77333777 150.47142759 97.56640625 148.83203125 C95.27143036 145.71791019 92.9666628 142.61148695 90.65234375 139.51171875 C90.13969971 138.82174805 89.62705566 138.13177734 89.09887695 137.42089844 C88.13641569 136.12571286 87.17026227 134.83326053 86.19995117 133.54394531 C83 129.22549972 83 129.22549972 83 127 C82.01 127 81.02 127 80 127 C79.73195557 127.58571777 79.46391113 128.17143555 79.18774414 128.77490234 C77.98714771 131.02407724 76.68475925 132.69868833 74.99609375 134.6015625 C74.42052734 135.25640625 73.84496094 135.91125 73.25195312 136.5859375 C72.65318359 137.25882813 72.05441406 137.93171875 71.4375 138.625 C70.24685689 139.96972634 69.05796763 141.31600822 67.87109375 142.6640625 C67.34443115 143.25654785 66.81776855 143.8490332 66.27514648 144.45947266 C64.91142412 145.98897476 64.91142412 145.98897476 64 148 C63.34 148 62.68 148 62 148 C61.01 150.97 61.01 150.97 60 154 C61.06408081 154.4007373 61.06408081 154.4007373 62.1496582 154.80957031 C65.1038501 156.04337243 67.81463895 157.47921999 70.60546875 159.046875 C71.67216797 159.645 72.73886719 160.243125 73.83789062 160.859375 C74.94326172 161.48328125 76.04863281 162.1071875 77.1875 162.75 C78.27353516 163.3584375 79.35957031 163.966875 80.47851562 164.59375 C86.33963893 167.88865175 92.14576179 171.25611654 97.89868164 174.73632812 C100.27974847 176.16823261 102.68886962 177.53905753 105.125 178.875 C105.87007813 179.28492188 106.61515625 179.69484375 107.3828125 180.1171875 C107.91648437 180.40851563 108.45015625 180.69984375 109 181 C108.39301257 185.12751449 106.96189209 188.3321148 105 192 C97.04458298 187.79935207 89.11923975 183.54775334 81.25 179.1875 C80.51080322 178.77862549 79.77160645 178.36975098 79.01000977 177.94848633 C74.88319984 175.65149252 70.79649404 173.29910743 66.73828125 170.8828125 C65.44132324 170.11481323 65.44132324 170.11481323 64.11816406 169.33129883 C62.44156504 168.33491724 60.77011352 167.32981165 59.10449219 166.31518555 C58.34942383 165.86699463 57.59435547 165.41880371 56.81640625 164.95703125 C56.15068604 164.55460205 55.48496582 164.15217285 54.79907227 163.73754883 C52.81977721 162.69760152 52.81977721 162.69760152 50 164 C49.67 164.66 49.34 165.32 49 166 C48.34 166 47.68 166 47 166 C46.7421875 166.56203125 46.484375 167.1240625 46.21875 167.703125 C44.85830223 170.26704579 43.27211038 172.45226365 41.5 174.75 C40.58734375 175.94882812 40.58734375 175.94882812 39.65625 177.171875 C39.1096875 177.77515625 38.563125 178.3784375 38 179 C37.34 179 36.68 179 36 179 C35.72220703 179.5887793 35.44441406 180.17755859 35.15820312 180.78417969 C33.34581635 184.25155371 30.91246873 187.18298549 28.5 190.25 C28.00113281 190.8996875 27.50226563 191.549375 26.98828125 192.21875 C25.70815807 193.85236564 24.35894401 195.43134241 23 197 C22.34 197 21.68 197 21 197 C20.7421875 197.56203125 20.484375 198.1240625 20.21875 198.703125 C18.85830223 201.26704579 17.27211038 203.45226365 15.5 205.75 C14.58734375 206.94882812 14.58734375 206.94882812 13.65625 208.171875 C13.1096875 208.77515625 12.563125 209.3784375 12 210 C11.34 210 10.68 210 10 210 C9.690625 210.61875 9.38125 211.2375 9.0625 211.875 C8.375 213.25 7.6875 214.625 7 216 C6.34 216 5.68 216 5 216 C5 216.66 5 217.32 5 218 C0.62140745 217.49477778 -1.81651224 214.82172778 -5 212 C-3.0104461 209.32539823 -1.00634941 206.66201915 1 204 C1.93392578 202.74509766 1.93392578 202.74509766 2.88671875 201.46484375 C3.50160156 200.65144531 4.11648438 199.83804688 4.75 199 C5.32234375 198.236875 5.8946875 197.47375 6.484375 196.6875 C6.98453125 196.130625 7.4846875 195.57375 8 195 C8.66 195 9.32 195 10 195 C10.2578125 194.43796875 10.515625 193.8759375 10.78125 193.296875 C12.14169777 190.73295421 13.72788962 188.54773635 15.5 186.25 C16.41265625 185.05117188 16.41265625 185.05117188 17.34375 183.828125 C17.8903125 183.22484375 18.436875 182.6215625 19 182 C19.66 182 20.32 182 21 182 C21.27779297 181.4112207 21.55558594 180.82244141 21.84179688 180.21582031 C23.65418365 176.74844629 26.08753127 173.81701451 28.5 170.75 C28.99886719 170.1003125 29.49773437 169.450625 30.01171875 168.78125 C31.29184193 167.14763436 32.64105599 165.56865759 34 164 C34.66 164 35.32 164 36 164 C36.28875 163.4225 36.5775 162.845 36.875 162.25 C37.91666667 160.16666667 38.95833333 158.08333333 40 156 C38.44152344 155.12988281 38.44152344 155.12988281 36.8515625 154.2421875 C29.16346382 149.93995295 21.5221373 145.58836471 14 141 C12.33395568 139.99896349 10.66743917 138.99871137 9 138 C10.1094072 134.51329166 11.26337666 131.22515763 13 128 C19.03028022 129.62546655 24.08969065 132.74951087 29.4375 135.875 C30.35337891 136.40480469 31.26925781 136.93460938 32.21289062 137.48046875 C33.11072266 137.99996094 34.00855469 138.51945313 34.93359375 139.0546875 C35.80226074 139.55581055 36.67092773 140.05693359 37.56591797 140.57324219 C39.08357694 141.46283085 40.59021403 142.37184732 42.07861328 143.30957031 C45.39635654 145.39022674 45.39635654 145.39022674 49.18359375 146.046875 C51.7934318 144.54271027 53.22142195 142.63135702 55.0625 140.25 C56.22652344 138.76886719 56.22652344 138.76886719 57.4140625 137.2578125 C58.03522949 136.46552246 58.03522949 136.46552246 58.66894531 135.65722656 C60.06282501 133.92177987 61.50171624 132.23549071 62.9609375 130.5546875 C63.70331665 129.69762207 63.70331665 129.69762207 64.46069336 128.82324219 C65.4258961 127.71331488 66.39529764 126.60702129 67.36938477 125.50488281 C71.13740479 121.22952712 71.13740479 121.22952712 73 116 C71.73438556 113.5915546 70.5429552 111.79019461 68.875 109.6875 C68.42576172 109.09155029 67.97652344 108.49560059 67.51367188 107.8815918 C66.54116517 106.59461686 65.5606711 105.31364775 64.57324219 104.03808594 C62.3822634 101.1997416 60.24241015 98.32414116 58.09814453 95.45043945 C56.1327672 92.82122935 54.15275055 90.20322483 52.16992188 87.5871582 C51.06711966 86.09105695 50.03098037 84.54647055 49 83 C42.50699214 83.50083807 37.26879313 85.83376025 31.375 88.5 C29.53064895 89.32739637 27.68435103 90.15046951 25.8359375 90.96875 C25.02688965 91.33419922 24.2178418 91.69964844 23.38427734 92.07617188 C20.93299411 93.02596255 18.58747091 93.56080254 16 94 C15.32880451 92.5437455 14.66318193 91.08492133 14 89.625 C13.62875 88.81289062 13.2575 88.00078125 12.875 87.1640625 C12 85 12 85 12 83 C25.86 77.555 25.86 77.555 40 72 C34.09343045 62.68805627 34.09343045 62.68805627 27.5625 53.9375 C23 48.26573806 23 48.26573806 23 46 C22.34 46 21.68 46 21 46 C19.16675169 43.5977065 17.44728222 41.18398527 15.75 38.6875 C10.51583482 31.10631375 5.10778483 23.6790497 -0.45410156 16.3347168 C-1.01838867 15.579729 -1.58267578 14.82474121 -2.1640625 14.046875 C-2.66373535 13.38526367 -3.1634082 12.72365234 -3.67822266 12.04199219 C-5.14018637 9.78342838 -6.07682172 7.52134508 -7 5 C-4.69 3.35 -2.38 1.7 0 0 Z " fill="#ffdb6e" transform="translate(285,142)"/>
<path d="M0 0 C0.88252441 -0.01474365 1.76504883 -0.0294873 2.67431641 -0.04467773 C13.30007473 0.12100869 21.52689383 4.94399615 29.06640625 12.1875 C36.72944566 20.48432462 39.61830274 31.32723275 39.56396484 42.44580078 C38.92335972 49.62157138 35.17247979 58.25100452 30.375 63.5625 C29.715 63.5625 29.055 63.5625 28.375 63.5625 C28.12878906 64.15933594 27.88257813 64.75617188 27.62890625 65.37109375 C24.31650098 71.16006371 16.79149022 74.23860906 10.61328125 76.03125 C1.11890232 78.28471516 -8.47688041 78.00179913 -17.3125 73.4375 C-28.49353237 66.49754888 -35.01416238 58.18724948 -38.1171875 45.3828125 C-39.88711735 35.5528944 -38.5074838 26.92887833 -33.26953125 18.33984375 C-31.81253703 16.31255152 -30.27282449 14.43719887 -28.625 12.5625 C-28.11195313 11.94503906 -27.59890625 11.32757813 -27.0703125 10.69140625 C-19.45516109 2.22000576 -11.05729824 0.12264427 0 0 Z " fill="#ffdb6e" transform="translate(251.625,65.4375)"/>
<path d="M0 0 C0 0.66 0 1.32 0 2 C0.598125 2.12375 1.19625 2.2475 1.8125 2.375 C4 3 4 3 7 5 C7 5.66 7 6.32 7 7 C7.66 7 8.32 7 9 7 C16.61163459 15.64276735 20.77901232 25.48422495 20.31640625 37.01953125 C18.98491207 49.56187767 13.45148994 58.78326528 4 67 C1.625 68.75 1.625 68.75 -1 70 C-1.57621094 70.27714844 -2.15242188 70.55429687 -2.74609375 70.83984375 C-12.04715357 74.65521233 -24.42397006 74.41146634 -33.83203125 71.0390625 C-44.14555685 66.09600338 -52.36636359 57.24250012 -56.25 46.5625 C-58.63455047 35.29604594 -58.00327533 23.97645755 -52 14 C-44.86746699 4.21141913 -36.92339144 -1.16211992 -25.1171875 -3.59375 C-16.41276194 -4.72816135 -8.09885562 -3.15718101 0 0 Z " fill="#ffdb6e" transform="translate(82,215)"/>
<path d="M0 0 C7.69285641 6.81247502 12.20708327 16.66717401 13.03515625 26.765625 C13.54186466 39.01474996 9.43037718 48.6425562 1.25 57.58984375 C-6.74964835 65.14720385 -17.23557365 68.2313265 -28.0234375 68.0859375 C-37.75575505 67.22792462 -46.276597 63.83478824 -53.125 56.8125 C-60.99249963 47.39301314 -65.14093648 37.15708663 -64.125 24.8125 C-62.78202434 16.48358673 -59.41295259 9.40014215 -54.125 2.8125 C-53.465 2.8125 -52.805 2.8125 -52.125 2.8125 C-52.125 2.1525 -52.125 1.4925 -52.125 0.8125 C-36.22476223 -12.40089204 -16.48271453 -11.53790017 0 0 Z " fill="#ffdb6e" transform="translate(462.125,324.1875)"/>
<path d="M0 0 C7.53552756 6.1668297 12.92936033 13.69590738 15.5 23.1875 C16.32318184 36.35840941 14.07466547 45.60794017 7 56.875 C-1.67658971 65.55158971 -10.46145143 69.4237122 -22.625 69.6875 C-34.42745827 69.61291484 -42.78002948 65.60873537 -51.25390625 57.37890625 C-58.33186851 49.84430126 -61.70241827 39.81767773 -61.52734375 29.48828125 C-60.54748983 18.99493658 -56.16089458 9.08540479 -48.4765625 1.82421875 C-34.03041795 -9.10165592 -15.04397388 -10.58755143 0 0 Z " fill="#ffdb6e" transform="translate(459.3125,144.8125)"/>
<path d="M0 0 C8.66227524 6.73732519 14.75811686 14.20615702 16.8125 25.1875 C17.93931724 36.90368403 15.90410674 46.73202435 8.8125 56.1875 C8.1525 57.1775 7.4925 58.1675 6.8125 59.1875 C6.1525 59.1875 5.4925 59.1875 4.8125 59.1875 C4.8125 59.8475 4.8125 60.5075 4.8125 61.1875 C-4.22326438 69.0228609 -13.96915923 70.75017857 -25.63671875 70.46875 C-35.83693441 69.66081213 -44.1051718 64.79537324 -51 57.3125 C-57.75065854 49.0460686 -60.80045264 39.80190627 -60 29.0625 C-58.42350344 17.83217618 -53.71260108 8.63284921 -44.875 1.3125 C-30.69066002 -8.73771074 -14.84593381 -8.4418055 0 0 Z " fill="#ffdb6e" transform="translate(273.1875,363.8125)"/>
<path d="M0 0 C8.29268817 6.36415604 14.71917972 14.60938163 16.6875 25.0625 C17.43254347 36.43874068 16.76317742 46.16780392 9.34375 55.1875 C8.7971875 55.80625 8.250625 56.425 7.6875 57.0625 C7.1615625 57.68125 6.635625 58.3 6.09375 58.9375 C-0.24190243 65.87085549 -8.15889097 69.67179466 -17.51171875 70.265625 C-29.92820085 70.43247582 -38.79424715 68.35104568 -48.3125 60.0625 C-56.11248275 51.63206752 -60.19038795 42.83014489 -60.3515625 31.2578125 C-59.71782913 20.60505629 -55.76610114 11.71486384 -48.3125 4.0625 C-45.1456276 1.40191389 -41.87359793 -0.83838637 -38.3125 -2.9375 C-37.71179688 -3.29972656 -37.11109375 -3.66195312 -36.4921875 -4.03515625 C-24.85204622 -9.64643512 -10.45993722 -6.11807649 0 0 Z " fill="#ffdb6e" transform="translate(273.3125,217.9375)"/>
<path d="M0 0 C1.5078125 1.75 1.5078125 1.75 3.125 4 C3.66382813 4.7425 4.20265625 5.485 4.7578125 6.25 C5.16773438 6.8275 5.57765625 7.405 6 8 C2.54312335 11.59032226 -1.0128393 14.67220972 -5 17.6875 C-6.15632528 18.56630721 -7.3125731 19.44521634 -8.46875 20.32421875 C-9.05527344 20.76813965 -9.64179688 21.21206055 -10.24609375 21.66943359 C-13.00856558 23.7651284 -15.75372767 25.88315127 -18.5 28 C-19.58324247 28.83345145 -20.66657602 29.66678453 -21.75 30.5 C-22.28625 30.9125 -22.8225 31.325 -23.375 31.75 C-54.25 55.5 -54.25 55.5 -55.87475586 56.74975586 C-56.9589756 57.58380863 -58.04312264 58.41795589 -59.12719727 59.25219727 C-61.82138305 61.32530105 -64.51677797 63.39679151 -67.21484375 65.46484375 C-68.28917236 66.28891929 -69.36339091 67.11313835 -70.4375 67.9375 C-70.96972168 68.34597168 -71.50194336 68.75444336 -72.05029297 69.17529297 C-75.49970207 71.8289237 -78.92376935 74.51276376 -82.33764648 77.21191406 C-88.78114816 82.3061618 -95.30796125 87.23362954 -102 92 C-104.91020046 89.18600451 -107.02852473 86.54865549 -109 83 C-103.25 78 -103.25 78 -101 78 C-101 77.34 -101 76.68 -101 76 C-99.26451831 74.55473264 -97.46024037 73.1912778 -95.625 71.875 C-94.12839844 70.78832031 -94.12839844 70.78832031 -92.6015625 69.6796875 C-90 68 -90 68 -88 68 C-88 67.34 -88 66.68 -88 66 C-86.32479602 64.59946911 -84.58076908 63.28102288 -82.8125 62 C-81.69731417 61.18311354 -80.58275078 60.36537679 -79.46875 59.546875 C-78.89125 59.12470703 -78.31375 58.70253906 -77.71875 58.26757812 C-75.05264932 56.30132887 -72.43374105 54.27550445 -69.8125 52.25 C-65.46585002 48.89477247 -61.10833939 45.55434832 -56.74194336 42.22485352 C-50.13145915 37.18275797 -43.55426862 32.10347993 -37.02758789 26.95336914 C-32.6840845 23.52835979 -28.30678335 20.14984901 -23.91552734 16.78637695 C-19.10265081 13.09385322 -14.33505424 9.34485254 -9.58007812 5.578125 C-2.5171875 0 -2.5171875 0 0 0 Z " fill="#ffdb6e" transform="translate(209,131)"/>
<path d="M0 0 C1.32 0.33 2.64 0.66 4 1 C4 1.66 4 2.32 4 3 C4.66 3.20625 5.32 3.4125 6 3.625 C10.07180186 5.49124252 13.68796998 7.97561527 17 11 C17 11.66 17 12.32 17 13 C17.59063232 13.28053223 18.18126465 13.56106445 18.78979492 13.85009766 C20.81754978 14.90507671 22.53947726 16.02905914 24.36328125 17.3984375 C24.99484131 17.87144287 25.62640137 18.34444824 26.27709961 18.83178711 C27.2846228 19.59567749 27.2846228 19.59567749 28.3125 20.375 C29.01963135 20.90810791 29.7267627 21.44121582 30.45532227 21.99047852 C35.80504905 26.04431245 41.0577804 30.20927643 46.28027344 34.42504883 C51.69283296 38.78438029 57.20327549 43.00692133 62.73413086 47.21459961 C67.18697985 50.60505003 71.60862207 54.03035532 76 57.5 C81.95225733 62.20110737 87.96698322 66.81699329 93.99780273 71.41674805 C99.02164791 75.24867158 104.02223426 79.10829224 109 83 C107.02 85.97 105.04 88.94 103 92 C99.47365657 90.23682829 96.74876912 88.42886208 93.625 86.0625 C93.10607178 85.6698999 92.58714355 85.2772998 92.05249023 84.87280273 C87.42228564 81.35489346 82.85079597 77.7626368 78.28588867 74.16064453 C74.35610936 71.06020352 70.40765346 67.98606426 66.4375 64.9375 C65.90374756 64.52749756 65.36999512 64.11749512 64.82006836 63.69506836 C62.15736195 61.65138981 59.49166385 59.61171371 56.82421875 57.57421875 C50.97165457 53.09704297 45.17811828 48.5575706 39.4375 43.9375 C34.0489179 39.60181983 28.58153833 35.40012174 23.02734375 31.27734375 C19.64527334 28.73315401 16.31965529 26.12471721 13 23.5 C6.74648738 18.55657353 0.40239167 13.74902679 -6 9 C-4.14099778 5.86000465 -2.24154592 2.88198761 0 0 Z " fill="#ffdb6e" transform="translate(106,277)"/>
<path d="M0 0 C11.94565354 4.15314836 23.70515915 8.74087416 35.47241211 13.37280273 C38.76653522 14.66940773 42.06185658 15.96292497 45.35742188 17.25585938 C60.26300143 23.10907582 75.13818751 29.03660699 90 35 C89.01 38.3 88.02 41.6 87 45 C82.82955173 44.41512711 79.17388625 43.45537747 75.25390625 41.92578125 C74.1767334 41.50844727 73.09956055 41.09111328 71.98974609 40.66113281 C70.85875488 40.21608398 69.72776367 39.77103516 68.5625 39.3125 C66.81187256 38.6313916 66.81187256 38.6313916 65.02587891 37.93652344 C57.8060806 35.12163473 50.60716218 32.25721934 43.421875 29.35546875 C39.67480339 27.87118354 35.90446817 26.46155746 32.125 25.0625 C25.69921827 22.68339618 19.36580144 20.11687012 13.04174805 17.48046875 C7.41888118 15.14587809 1.7436231 13.0224025 -4 11 C-2.68 7.37 -1.36 3.74 0 0 Z " fill="#ffdb6e" transform="translate(301,117)"/>
<path d="M0 0 C28.71 0 57.42 0 87 0 C87 3.96 87 7.92 87 12 C58.29 12 29.58 12 0 12 C0 8.04 0 4.08 0 0 Z " fill="#ffdb6e" transform="translate(114,244)"/>
<path d="M0 0 C0.99 5.445 0.99 5.445 2 11 C-39.33313839 20.65208948 -39.33313839 20.65208948 -56.51412964 24.56173706 C-58.37720156 24.98626028 -60.23951784 25.41409551 -62.10180664 25.84204102 C-69.37163203 27.48864953 -76.63657257 28.83882266 -84 30 C-84.66 26.37 -85.32 22.74 -86 19 C-65.82555598 14.04422635 -45.62460017 9.25797958 -25.34570312 4.74755859 C-22.29599226 4.06613604 -19.24904104 3.37393783 -16.203125 2.67578125 C-15.36064209 2.4840332 -14.51815918 2.29228516 -13.65014648 2.09472656 C-12.15676356 1.75471875 -10.66401607 1.41189965 -9.17211914 1.06542969 C-5.98173119 0.34526637 -3.30224501 0 0 0 Z " fill="#ffdb6e" transform="translate(386,360)"/>
</svg>