<?xml version="1.0" encoding="UTF-8"?>
<svg version="1.1" xmlns="http://www.w3.org/2000/svg" width="260" height="260">
<path d="M0 0 C2.66147661 2.15302588 5.24989555 4.34018393 7.77734375 6.6484375 C8.37160156 7.16921875 8.96585937 7.69 9.578125 8.2265625 C10.77734375 9.6484375 10.77734375 9.6484375 10.77734375 12.6484375 C11.39609375 12.8959375 12.01484375 13.1434375 12.65234375 13.3984375 C15.17260202 14.88094236 15.78966034 15.93230814 16.77734375 18.6484375 C16.77734375 19.6384375 16.77734375 20.6284375 16.77734375 21.6484375 C17.43734375 21.6484375 18.09734375 21.6484375 18.77734375 21.6484375 C19.06609375 20.7203125 19.35484375 19.7921875 19.65234375 18.8359375 C20.77734375 15.6484375 20.77734375 15.6484375 22.77734375 12.6484375 C23.43734375 12.6484375 24.09734375 12.6484375 24.77734375 12.6484375 C24.96296875 11.9678125 25.14859375 11.2871875 25.33984375 10.5859375 C30.19512116 0.66428365 41.5055965 -5.07092714 51.515625 -8.7109375 C70.20421543 -14.2512715 88.21044705 -13.91291308 105.64453125 -4.55859375 C106.34835938 -4.16027344 107.0521875 -3.76195313 107.77734375 -3.3515625 C108.43734375 -4.3621875 109.09734375 -5.3728125 109.77734375 -6.4140625 C111.42321794 -8.39851653 112.21871219 -9.25374764 114.78515625 -9.703125 C117.10212742 -9.52358111 118.6808605 -9.38226033 120.77734375 -8.3515625 C126.12920231 -1.19872051 127.08772679 8.82462831 127.17578125 17.52734375 C126.6611825 20.26682534 125.6995377 21.64670449 123.77734375 23.6484375 C117.82006926 24.90260055 111.84628399 24.76036468 105.77734375 24.6484375 C105.98359375 25.5971875 106.18984375 26.5459375 106.40234375 27.5234375 C106.52609375 28.5546875 106.64984375 29.5859375 106.77734375 30.6484375 C105.78734375 31.6384375 105.78734375 31.6384375 104.77734375 32.6484375 C104.37970112 34.63665063 104.03959026 36.63788089 103.77734375 38.6484375 C106.74734375 39.3084375 109.71734375 39.9684375 112.77734375 40.6484375 C113.43734375 42.9584375 114.09734375 45.2684375 114.77734375 47.6484375 C111.31234375 50.1234375 111.31234375 50.1234375 107.77734375 52.6484375 C108.1278395 55.89052317 108.33955556 57.26371454 110.83984375 59.4609375 C111.47921875 59.8528125 112.11859375 60.2446875 112.77734375 60.6484375 C112.44734375 62.9584375 112.11734375 65.2684375 111.77734375 67.6484375 C111.13925781 67.70902344 110.50117188 67.76960938 109.84375 67.83203125 C109.01746094 67.91582031 108.19117188 67.99960938 107.33984375 68.0859375 C106.10427734 68.20775391 106.10427734 68.20775391 104.84375 68.33203125 C102.7907235 68.43774565 102.7907235 68.43774565 101.77734375 69.6484375 C101.99992511 72.73277922 102.36361695 75.79156344 102.71875 78.86328125 C102.73808594 79.78238281 102.75742188 80.70148438 102.77734375 81.6484375 C100.77734375 83.6484375 100.77734375 83.6484375 97.83984375 83.8984375 C94.77734375 83.6484375 94.77734375 83.6484375 91.77734375 81.6484375 C89.78764425 81.25830034 87.78714506 80.91641101 85.77734375 80.6484375 C85.77734375 83.9484375 85.77734375 87.2484375 85.77734375 90.6484375 C82.31234375 91.6384375 82.31234375 91.6384375 78.77734375 92.6484375 C74.77734375 87.0234375 74.77734375 87.0234375 74.77734375 83.6484375 C68.78730201 85.8438117 68.78730201 85.8438117 64.77734375 90.6484375 C57.90234375 89.7734375 57.90234375 89.7734375 56.77734375 88.6484375 C56.54447367 86.96659802 56.36470209 85.2771959 56.21484375 83.5859375 C56.13105469 82.66683594 56.04726562 81.74773437 55.9609375 80.80078125 C55.90035156 80.09050781 55.83976563 79.38023437 55.77734375 78.6484375 C52.09468272 79.24794046 48.4319119 79.89602641 44.77734375 80.6484375 C43.21484375 78.9609375 43.21484375 78.9609375 41.77734375 76.6484375 C41.96484375 74.3359375 41.96484375 74.3359375 42.77734375 71.6484375 C43.12796875 70.3903125 43.47859375 69.1321875 43.83984375 67.8359375 C44.14921875 66.7840625 44.45859375 65.7321875 44.77734375 64.6484375 C44.15085938 64.55046875 43.524375 64.4525 42.87890625 64.3515625 C42.06164062 64.20203125 41.244375 64.0525 40.40234375 63.8984375 C39.59023437 63.75921875 38.778125 63.62 37.94140625 63.4765625 C35.77734375 62.6484375 35.77734375 62.6484375 34.48828125 60.69921875 C33.77734375 58.6484375 33.77734375 58.6484375 33.77734375 56.5859375 C35.33467251 53.56861303 37.72321847 52.89501925 40.77734375 51.6484375 C41.43734375 51.6484375 42.09734375 51.6484375 42.77734375 51.6484375 C42.67565214 48.70116215 42.67565214 48.70116215 41.77734375 45.6484375 C39.34848587 44.25984878 39.34848587 44.25984878 36.77734375 43.6484375 C35.77734375 42.6484375 35.77734375 42.6484375 35.65234375 39.1484375 C35.77734375 35.6484375 35.77734375 35.6484375 36.77734375 34.6484375 C38.80739857 34.6484375 40.83798802 34.65201338 42.8671875 34.7109375 C44.86492075 34.77870089 44.86492075 34.77870089 46.77734375 33.6484375 C46.65875 32.90078125 46.54015625 32.153125 46.41796875 31.3828125 C45.35195782 23.23848896 45.35195782 23.23848896 47.71484375 19.9609375 C48.39546875 19.5278125 49.07609375 19.0946875 49.77734375 18.6484375 C50.62296875 18.9371875 51.46859375 19.2259375 52.33984375 19.5234375 C55.80095416 20.65616454 59.27106932 21.66668066 62.77734375 22.6484375 C62.76574219 22.02195313 62.75414062 21.39546875 62.7421875 20.75 C62.73316406 19.93273437 62.72414062 19.11546875 62.71484375 18.2734375 C62.70324219 17.46132812 62.69164062 16.64921875 62.6796875 15.8125 C62.77734375 13.6484375 62.77734375 13.6484375 63.77734375 11.6484375 C66.02734375 10.7109375 66.02734375 10.7109375 68.77734375 10.6484375 C71.86352313 13.17349336 73.51023507 14.84711145 74.77734375 18.6484375 C77.14273427 18.52787154 77.14273427 18.52787154 79.77734375 17.6484375 C80.70546875 16.3490625 80.70546875 16.3490625 81.65234375 15.0234375 C82.35359375 14.2396875 83.05484375 13.4559375 83.77734375 12.6484375 C89.98787007 12.85896382 89.98787007 12.85896382 91.77734375 14.6484375 C91.84914339 16.16771788 91.86126382 17.69011232 91.83984375 19.2109375 C91.83082031 20.03722656 91.82179687 20.86351562 91.8125 21.71484375 C91.79509766 22.67197266 91.79509766 22.67197266 91.77734375 23.6484375 C94.13102088 24.3362611 94.13102088 24.3362611 96.77734375 24.6484375 C97.76734375 23.9884375 98.75734375 23.3284375 99.77734375 22.6484375 C98.80796875 22.1121875 97.83859375 21.5759375 96.83984375 21.0234375 C93.77734375 18.6484375 93.77734375 18.6484375 92.77734375 15.6484375 C92.77734375 12.61212283 93.13656803 11.15785919 94.77734375 8.6484375 C93.52842761 8.16645287 92.27815567 7.68798073 91.02734375 7.2109375 C90.33125 6.94410156 89.63515625 6.67726563 88.91796875 6.40234375 C78.57310698 2.75898915 65.53234886 3.42153884 55.3984375 7.37109375 C50.3943513 9.80974679 46.00364351 12.88458603 41.65234375 16.33203125 C39.77734375 17.6484375 39.77734375 17.6484375 37.77734375 17.6484375 C37.57109375 18.4321875 37.36484375 19.2159375 37.15234375 20.0234375 C35.93225766 23.2400281 34.57707375 25.74253199 32.77734375 28.6484375 C26.34387924 39.13608038 25.20357394 51.7223217 27.8203125 63.6953125 C29.09229297 67.62028081 30.7749729 71.26019738 32.58984375 74.9609375 C32.92113281 75.64293213 33.25242188 76.32492676 33.59375 77.02758789 C36.22586533 82.16970359 39.37888479 85.89821069 44.08984375 89.3359375 C44.64671875 89.7690625 45.20359375 90.2021875 45.77734375 90.6484375 C45.77734375 91.3084375 45.77734375 91.9684375 45.77734375 92.6484375 C46.33421875 92.83019531 46.89109375 93.01195312 47.46484375 93.19921875 C48.22796875 93.45058594 48.99109375 93.70195312 49.77734375 93.9609375 C50.60363281 94.23292969 51.42992187 94.50492187 52.28125 94.78515625 C54.46744699 95.54125881 56.57965068 96.38704856 58.71484375 97.2734375 C71.07689424 101.85466798 85.39383461 99.50488539 97.12890625 94.125 C101.26254316 91.82040597 104.50673535 89.0464722 107.77734375 85.6484375 C108.39351562 85.0296875 109.0096875 84.4109375 109.64453125 83.7734375 C116.83019048 76.12518218 120.87268713 67.80261 120.91796875 57.30859375 C120.93730469 56.08076172 120.95664063 54.85292969 120.9765625 53.58789062 C121.01036345 51.00731843 121.02864182 48.42649535 121.03125 45.84570312 C121.24036333 35.3515158 121.24036333 35.3515158 124.1328125 32.2734375 C126.77734375 30.6484375 126.77734375 30.6484375 129.83984375 30.5859375 C133.20279406 31.80232378 134.62473851 32.80392343 136.77734375 35.6484375 C141.8227905 47.66313443 139.48423529 63.91275618 134.77734375 75.6484375 C126.31104959 93.17668853 112.78457955 106.77656472 94.328125 113.546875 C76.35663206 119.01101093 57.88267271 115.92055119 41.53515625 107.2890625 C37.29561523 104.76695594 33.49251894 101.88594731 29.77734375 98.6484375 C29.22820312 98.17019531 28.6790625 97.69195312 28.11328125 97.19921875 C26.71484375 95.8984375 26.71484375 95.8984375 24.77734375 93.6484375 C24.77734375 92.6584375 24.77734375 91.6684375 24.77734375 90.6484375 C24.15859375 90.4215625 23.53984375 90.1946875 22.90234375 89.9609375 C20.16324166 88.26913915 19.72709903 86.65599589 18.77734375 83.6484375 C18.11734375 83.6484375 17.45734375 83.6484375 16.77734375 83.6484375 C16.55046875 84.3703125 16.32359375 85.0921875 16.08984375 85.8359375 C14.49650932 89.25022557 12.50380779 91.04314964 9.77734375 93.6484375 C9.30683594 94.2465625 8.83632812 94.8446875 8.3515625 95.4609375 C-0.97608943 107.3114531 -15.3028594 112.76654057 -29.78125 115.26171875 C-45.73537742 117.05452081 -58.00822613 113.73272606 -72.22265625 106.6484375 C-72.88265625 107.6590625 -73.54265625 108.6696875 -74.22265625 109.7109375 C-75.8481916 111.65602253 -76.69433103 112.53544914 -79.1953125 113.0703125 C-81.49614677 112.94989501 -83.12690304 112.61063866 -85.22265625 111.6484375 C-91.2736468 104.32355421 -91.36434732 94.19010737 -91.78125 85.05859375 C-91.22265625 82.6484375 -91.22265625 82.6484375 -89.24609375 80.31640625 C-85.09540301 78.0265549 -82.01992423 78.41157181 -77.41015625 78.8984375 C-76.62189453 78.96417969 -75.83363281 79.02992188 -75.02148438 79.09765625 C-73.08679393 79.2618118 -71.15438631 79.45249575 -69.22265625 79.6484375 C-70.21265625 78.6584375 -70.21265625 78.6584375 -71.22265625 77.6484375 C-71.47265625 75.1484375 -71.47265625 75.1484375 -71.22265625 72.6484375 C-70.56265625 71.9884375 -69.90265625 71.3284375 -69.22265625 70.6484375 C-69.05584516 67.56495924 -69.05584516 67.56495924 -69.22265625 64.6484375 C-72.19265625 63.6584375 -75.16265625 62.6684375 -78.22265625 61.6484375 C-78.22265625 59.3384375 -78.22265625 57.0284375 -78.22265625 54.6484375 C-72.47265625 51.6484375 -72.47265625 51.6484375 -70.22265625 51.6484375 C-70.32434786 48.70116215 -70.32434786 48.70116215 -71.22265625 45.6484375 C-73.65151413 44.25984878 -73.65151413 44.25984878 -76.22265625 43.6484375 C-77.22265625 42.6484375 -77.22265625 42.6484375 -77.41015625 39.7734375 C-77.22265625 36.6484375 -77.22265625 36.6484375 -75.22265625 33.6484375 C-72.18398826 33.23706548 -69.30105922 33.51650594 -66.22265625 33.6484375 C-66.22265625 29.3584375 -66.22265625 25.0684375 -66.22265625 20.6484375 C-64.57265625 19.9884375 -62.92265625 19.3284375 -61.22265625 18.6484375 C-58.78515625 19.9609375 -58.78515625 19.9609375 -56.22265625 21.6484375 C-53.02870599 22.36244982 -53.02870599 22.36244982 -50.22265625 22.6484375 C-50.22265625 19.3484375 -50.22265625 16.0484375 -50.22265625 12.6484375 C-47.71963854 11.46645691 -45.82664442 10.6311807 -43.03515625 10.7109375 C-41.22265625 11.6484375 -41.22265625 11.6484375 -39.97265625 14.0234375 C-39.22265625 16.6484375 -39.22265625 16.6484375 -39.22265625 19.6484375 C-33.23261451 17.4530633 -33.23261451 17.4530633 -29.22265625 12.6484375 C-26.91265625 12.9784375 -24.60265625 13.3084375 -22.22265625 13.6484375 C-21.06490565 17.12168931 -21.15398973 20.00911198 -21.22265625 23.6484375 C-17.65372051 24.70241044 -17.65372051 24.70241044 -14.22265625 23.6484375 C-12.22265625 22.6484375 -12.22265625 22.6484375 -9.59765625 22.7734375 C-7.22265625 23.6484375 -7.22265625 23.6484375 -5.72265625 25.3359375 C-4.98145327 28.76400128 -6.61438852 30.6174714 -8.22265625 33.6484375 C-8.47549992 36.39990024 -8.47549992 36.39990024 -8.22265625 38.6484375 C-6.92328125 38.7928125 -5.62390625 38.9371875 -4.28515625 39.0859375 C-0.34765625 39.5234375 -0.34765625 39.5234375 0.77734375 40.6484375 C1.28348512 45.87856496 1.28348512 45.87856496 0.77734375 48.6484375 C-2.05918776 51.10165394 -3.47389121 51.6484375 -7.22265625 51.6484375 C-6.1888604 55.03176936 -5.53206357 56.42743227 -2.59765625 58.5234375 C-0.22265625 60.6484375 -0.22265625 60.6484375 0.08984375 64.3984375 C-0.01328125 65.4709375 -0.11640625 66.5434375 -0.22265625 67.6484375 C-0.93292969 67.70902344 -1.64320312 67.76960938 -2.375 67.83203125 C-3.29410156 67.91582031 -4.21320313 67.99960938 -5.16015625 68.0859375 C-6.53494141 68.20775391 -6.53494141 68.20775391 -7.9375 68.33203125 C-10.18425357 68.40888726 -10.18425357 68.40888726 -11.22265625 69.6484375 C-11.00007489 72.73277922 -10.63638305 75.79156344 -10.28125 78.86328125 C-10.26191406 79.78238281 -10.24257812 80.70148438 -10.22265625 81.6484375 C-12.22265625 83.6484375 -12.22265625 83.6484375 -15.16015625 83.8984375 C-18.22265625 83.6484375 -18.22265625 83.6484375 -21.22265625 81.6484375 C-23.21235575 81.25830034 -25.21285494 80.91641101 -27.22265625 80.6484375 C-26.91328125 81.421875 -26.91328125 81.421875 -26.59765625 82.2109375 C-26.06378599 85.68109421 -27.14588864 88.35479541 -28.22265625 91.6484375 C-30.20265625 91.9784375 -32.18265625 92.3084375 -34.22265625 92.6484375 C-35.87265625 90.0084375 -37.52265625 87.3684375 -39.22265625 84.6484375 C-41.58804677 84.76900346 -41.58804677 84.76900346 -44.22265625 85.6484375 C-44.84140625 86.5146875 -45.46015625 87.3809375 -46.09765625 88.2734375 C-47.14953125 89.4490625 -47.14953125 89.4490625 -48.22265625 90.6484375 C-54.43318257 90.43791118 -54.43318257 90.43791118 -56.22265625 88.6484375 C-56.29445589 87.12915712 -56.30657632 85.60676268 -56.28515625 84.0859375 C-56.27613281 83.25964844 -56.26710937 82.43335938 -56.2578125 81.58203125 C-56.24621094 80.94394531 -56.23460937 80.30585938 -56.22265625 79.6484375 C-58.61985057 78.96885147 -58.61985057 78.96885147 -61.22265625 78.6484375 C-61.88265625 79.3084375 -62.54265625 79.9684375 -63.22265625 80.6484375 C-62.41828125 81.1846875 -61.61390625 81.7209375 -60.78515625 82.2734375 C-58.22265625 84.6484375 -58.22265625 84.6484375 -57.28515625 87.6484375 C-57.21972547 90.78911487 -57.74287088 91.97676274 -59.22265625 94.6484375 C-48.8940468 99.84755776 -36.38429119 100.65035526 -25.203125 97.73046875 C-18.82352969 95.59472124 -13.2870565 92.80927754 -7.89453125 88.78515625 C-6.22265625 87.6484375 -6.22265625 87.6484375 -4.22265625 87.6484375 C-4.22265625 86.9884375 -4.22265625 86.3284375 -4.22265625 85.6484375 C-3.56265625 85.6484375 -2.90265625 85.6484375 -2.22265625 85.6484375 C-1.95453125 84.94460937 -1.68640625 84.24078125 -1.41015625 83.515625 C-0.16363143 80.50592362 1.27585629 77.66380087 2.77734375 74.7734375 C8.90512424 62.48805764 10.53357064 49.0080228 6.77734375 35.6484375 C4.36248318 29.44883183 1.1287122 24.62143002 -3.22265625 19.6484375 C-3.22265625 18.9884375 -3.22265625 18.3284375 -3.22265625 17.6484375 C-4.104375 17.24044922 -4.104375 17.24044922 -5.00390625 16.82421875 C-7.17558624 15.67338129 -8.83779794 14.4025193 -10.72265625 12.8359375 C-22.36501976 4.2048957 -34.14475546 3.21449741 -48.22265625 4.6484375 C-52.55647761 5.47458662 -56.26529232 6.71493092 -60.22265625 8.6484375 C-61.10050781 9.07253906 -61.97835937 9.49664062 -62.8828125 9.93359375 C-72.86222357 15.33722659 -78.84385048 23.34222392 -83.22265625 33.6484375 C-83.63515625 34.5971875 -84.04765625 35.5459375 -84.47265625 36.5234375 C-86.01612734 42.95456704 -86.28261871 49.50575488 -86.17578125 56.1015625 C-86.16466309 56.86428467 -86.15354492 57.62700684 -86.14208984 58.4128418 C-86.11285079 59.9250792 -86.06929041 61.43711887 -86.01025391 62.94848633 C-85.89847511 68.14259449 -85.89847511 68.14259449 -87.484375 70.6171875 C-90.55651887 72.43976274 -93.81879717 72.23981504 -97.22265625 71.6484375 C-100.58424963 69.61378888 -101.50252007 67.30970485 -102.47265625 63.6484375 C-105.28130737 48.11229528 -102.24631015 30.55266017 -93.66015625 17.22265625 C-89.40622059 11.52120082 -84.42754786 6.48091778 -79.22265625 1.6484375 C-78.55878906 1.01808594 -77.89492187 0.38773438 -77.2109375 -0.26171875 C-56.00175918 -18.64300663 -21.54173948 -15.71894202 0 0 Z M-51.22265625 32.6484375 C-51.55265625 33.6384375 -51.88265625 34.6284375 -52.22265625 35.6484375 C-53.55272972 36.32158444 -54.88632226 36.98780622 -56.22265625 37.6484375 C-60.11925368 42.44702508 -60.85995941 47.88810268 -60.6015625 53.90625 C-59.63545542 60.8980765 -56.74592837 66.17535794 -51.14453125 70.49609375 C-45.52318502 73.86661639 -38.48981723 74.67705634 -32.1484375 73.1484375 C-27.41396587 71.60820274 -25.11027385 69.81944071 -22.22265625 65.6484375 C-21.23265625 64.9884375 -20.24265625 64.3284375 -19.22265625 63.6484375 C-16.31583716 57.54642441 -15.30451486 51.16776469 -17.22265625 44.6484375 C-20.28000664 37.90034141 -24.6585206 33.00928929 -31.66015625 30.3359375 C-38.55640126 29.0050832 -44.91404326 29.35875304 -51.22265625 32.6484375 Z M59.58984375 35.1484375 C58.99171875 35.9734375 58.39359375 36.7984375 57.77734375 37.6484375 C57.24109375 38.1640625 56.70484375 38.6796875 56.15234375 39.2109375 C51.82466924 43.73532449 52.24780242 49.15215115 52.328125 55.08984375 C53.16153485 61.69189919 56.65398834 65.52508209 61.21484375 70.0859375 C67.1212237 73.68738869 73.41181198 74.63373874 80.1484375 73.11328125 C84.8435678 71.97808336 84.8435678 71.97808336 87.91796875 68.58984375 C88.34335938 67.62884766 88.34335938 67.62884766 88.77734375 66.6484375 C89.41671875 66.3803125 90.05609375 66.1121875 90.71484375 65.8359375 C93.28022263 64.35890117 94.19798242 62.71057482 95.23046875 59.96875 C96.84321639 53.12609215 97.09905192 45.98253511 93.40234375 39.8359375 C92.16383186 37.96633487 92.16383186 37.96633487 90.77734375 36.6484375 C90.11734375 36.6484375 89.45734375 36.6484375 88.77734375 36.6484375 C88.52984375 35.75125 88.52984375 35.75125 88.27734375 34.8359375 C85.92180183 31.4007722 82.68067801 30.51864772 78.77734375 29.6484375 C71.14124778 28.84918559 64.92753828 29.04821518 59.58984375 35.1484375 Z " fill="#FBBE66" transform="translate(112.22265625,78.3515625)"/>
<path d="M0 0 C0.66 0.33 1.32 0.66 2 1 C1.67 3.31 1.34 5.62 1 8 C0.36191406 8.06058594 -0.27617187 8.12117187 -0.93359375 8.18359375 C-1.75988281 8.26738281 -2.58617187 8.35117188 -3.4375 8.4375 C-4.67306641 8.55931641 -4.67306641 8.55931641 -5.93359375 8.68359375 C-7.98662025 8.78930815 -7.98662025 8.78930815 -9 10 C-8.77741864 13.08434172 -8.4137268 16.14312594 -8.05859375 19.21484375 C-8.02958984 20.59349609 -8.02958984 20.59349609 -8 22 C-10 24 -10 24 -12.9375 24.25 C-16 24 -16 24 -19 22 C-20.9896995 21.60986284 -22.99019869 21.26797351 -25 21 C-25 20.67 -25 20.34 -25 20 C-23.865625 19.87625 -22.73125 19.7525 -21.5625 19.625 C-20.386875 19.41875 -19.21125 19.2125 -18 19 C-17.67 18.34 -17.34 17.68 -17 17 C-17 17.99 -17 18.98 -17 20 C-14.88077873 18.91256712 -14.88077873 18.91256712 -13 17 C-12.95745644 15.00045254 -12.95919217 12.99958364 -13 11 C-11.875 8.625 -11.875 8.625 -10 7 C-6.8125 6.75 -6.8125 6.75 -4 7 C-4 6.34 -4 5.68 -4 5 C-2.68 4.67 -1.36 4.34 0 4 C0 2.68 0 1.36 0 0 Z " fill="#F7C173" transform="translate(223,138)"/>
<path d="M0 0 C0.66 0.33 1.32 0.66 2 1 C2 1.66 2 2.32 2 3 C2.66 3 3.32 3 4 3 C4.33 2.34 4.66 1.68 5 1 C5 5 5 5 3 8 C-0.125 8.6875 -0.125 8.6875 -3 9 C-2.67 10.98 -2.34 12.96 -2 15 C-3.65 15 -5.3 15 -7 15 C-7 14.34 -7 13.68 -7 13 C-6.34 13 -5.68 13 -5 13 C-5.66 9.7 -6.32 6.4 -7 3 C-5.68 3 -4.36 3 -3 3 C-1.2488427 1.5833253 -1.2488427 1.5833253 0 0 Z " fill="#FCBB63" transform="translate(160,117)"/>
<path d="M0 0 C1.98 0.99 3.96 1.98 6 3 C1.375 7.875 1.375 7.875 -2 9 C-2 11.64 -2 14.28 -2 17 C-2.33 17 -2.66 17 -3 17 C-3.33 14.69 -3.66 12.38 -4 10 C-5.65 10 -7.3 10 -9 10 C-9 9.34 -9 8.68 -9 8 C-7.02 7.34 -5.04 6.68 -3 6 C-3 5.01 -3 4.02 -3 3 C-2.01 2.67 -1.02 2.34 0 2 C0 1.34 0 0.68 0 0 Z " fill="#F6C47A" transform="translate(172,147)"/>
<path d="M0 0 C1.134375 0.020625 2.26875 0.04125 3.4375 0.0625 C2.880625 0.330625 2.32375 0.59875 1.75 0.875 C-3.63445042 3.59827357 -3.63445042 3.59827357 -7.5625 8.0625 C-9.9056213 7.80688677 -12.24093403 7.46979228 -14.5625 7.0625 C-14.8925 6.4025 -15.2225 5.7425 -15.5625 5.0625 C-13.0875 5.5575 -13.0875 5.5575 -10.5625 6.0625 C-10.5625 4.4125 -10.5625 2.7625 -10.5625 1.0625 C-9.1084375 1.0934375 -9.1084375 1.0934375 -7.625 1.125 C-3.88736045 1.04872164 -3.92115709 0.06879223 0 0 Z " fill="#F4C378" transform="translate(184.5625,160.9375)"/>
<path d="M0 0 C1.65 0 3.3 0 5 0 C5.70074844 3.153368 6 5.72724974 6 9 C4.02 8.34 2.04 7.68 0 7 C-1.125 2.25 -1.125 2.25 0 0 Z " fill="#F7C15D" transform="translate(147,133)"/>
<path d="M0 0 C1.093125 0.391875 2.18625 0.78375 3.3125 1.1875 C5.63860375 1.88206805 7.97468382 2.53291147 10.3125 3.1875 C10.6425 1.8675 10.9725 0.5475 11.3125 -0.8125 C11.3125 1.1675 11.3125 3.1475 11.3125 5.1875 C8.47166359 6.60791821 6.45772722 6.50202272 3.3125 6.1875 C1.97916667 4.85416667 0.64583333 3.52083333 -0.6875 2.1875 C-3.39455512 2.32775199 -3.39455512 2.32775199 -5.6875 3.1875 C-5.3575 2.1975 -5.0275 1.2075 -4.6875 0.1875 C-2.6875 -0.8125 -2.6875 -0.8125 0 0 Z " fill="#F6C07B" transform="translate(164.6875,97.8125)"/>
<path d="M0 0 C-2.24353987 2.24353987 -3.85419177 2.80167078 -6.8125 3.875 C-11.38127117 5.64440849 -15.7049318 7.40986361 -18 12 C-18.66 12 -19.32 12 -20 12 C-20 12.66 -20 13.32 -20 14 C-21.32 13.67 -22.64 13.34 -24 13 C-6.14723926 -3.07361963 -6.14723926 -3.07361963 0 0 Z " fill="#F3C27A" transform="translate(54,70)"/>
<path d="M0 0 C0.66 0.99 1.32 1.98 2 3 C1.01 3.33 0.02 3.66 -1 4 C-1.35412344 5.32796291 -1.68521554 6.66216607 -2 8 C-3.4375 9.75 -3.4375 9.75 -5 11 C-5.66 11 -6.32 11 -7 11 C-7.2475 11.639375 -7.495 12.27875 -7.75 12.9375 C-9 15 -9 15 -11.078125 15.62890625 C-12.02945313 15.81259766 -12.02945313 15.81259766 -13 16 C-12.125 14.97916667 -11.25 13.95833333 -10.375 12.9375 C-9.83230469 12.30328125 -9.28960937 11.6690625 -8.73046875 11.015625 C-7.59153355 9.68900974 -6.44840423 8.36598187 -5.30078125 7.046875 C-4.50220703 6.12648437 -4.50220703 6.12648437 -3.6875 5.1875 C-3.19636719 4.62417969 -2.70523438 4.06085938 -2.19921875 3.48046875 C-0.90743145 1.99442452 -0.90743145 1.99442452 0 0 Z " fill="#F3BE71" transform="translate(228,154)"/>
<path d="M0 0 C1.32 0 2.64 0 4 0 C4.66 1.65 5.32 3.3 6 5 C7.65 5 9.3 5 11 5 C10.67 6.32 10.34 7.64 10 9 C9.34 9 8.68 9 8 9 C7.67 10.32 7.34 11.64 7 13 C6.66226563 12.28972656 6.32453125 11.57945313 5.9765625 10.84765625 C5.53054687 9.92855469 5.08453125 9.00945312 4.625 8.0625 C3.96371094 6.68771484 3.96371094 6.68771484 3.2890625 5.28515625 C2.20800838 2.87096198 2.20800838 2.87096198 0 2 C0 1.34 0 0.68 0 0 Z " fill="#F8C075" transform="translate(201,113)"/>
<path d="M0 0 C0 3 0 3 -2.3125 5.4375 C-3.199375 6.283125 -4.08625 7.12875 -5 8 C-7.22925675 10.62733831 -8.39231582 12.59696858 -9 16 C-9.66 16 -10.32 16 -11 16 C-11.33 16.99 -11.66 17.98 -12 19 C-12.66 18.67 -13.32 18.34 -14 18 C-9.96237418 11.21335234 -5.9178511 5.27030509 0 0 Z " fill="#F4C384" transform="translate(29,84)"/>
<path d="M0 0 C0.66 0 1.32 0 2 0 C2 0.66 2 1.32 2 2 C3.32 2.33 4.64 2.66 6 3 C4.68 3 3.36 3 2 3 C2.20625 3.515625 2.4125 4.03125 2.625 4.5625 C3.15887026 8.03265671 2.07676761 10.70635791 1 14 C-0.98 14.33 -2.96 14.66 -5 15 C-5.66 14.01 -6.32 13.02 -7 12 C-4.69 12.33 -2.38 12.66 0 13 C0 8.71 0 4.42 0 0 Z " fill="#EFC281" transform="translate(83,156)"/>
<path d="M0 0 C6.30596952 1.10938353 11.37529486 2.93197901 17 6 C16.34 6.66 15.68 7.32 15 8 C13.68445015 7.5504955 12.37261642 7.09010284 11.0625 6.625 C10.33160156 6.36976562 9.60070312 6.11453125 8.84765625 5.8515625 C7 5 7 5 6 3 C4.02111039 2.27306096 2.02045442 1.60183749 0 1 C0 0.67 0 0.34 0 0 Z " fill="#F4C17D" transform="translate(88,68)"/>
<path d="M0 0 C2.32101984 3.48152976 2.69903201 5.86169011 3 10 C1 12 1 12 -2 12.25 C-5 12 -5 12 -7 10 C-5.02 10 -3.04 10 -1 10 C-0.67 6.7 -0.34 3.4 0 0 Z " fill="#F5C376" transform="translate(99,150)"/>
<path d="M0 0 C1.2365332 -0.01836914 1.2365332 -0.01836914 2.49804688 -0.03710938 C3.68817383 -0.04000977 3.68817383 -0.04000977 4.90234375 -0.04296875 C5.62800537 -0.04707764 6.35366699 -0.05118652 7.10131836 -0.05541992 C9.0625 0.1875 9.0625 0.1875 12.0625 2.1875 C11.7325 2.8475 11.4025 3.5075 11.0625 4.1875 C10.299375 3.8575 9.53625 3.5275 8.75 3.1875 C1.83482871 1.31219931 -5.29220681 1.3138597 -11.9375 4.1875 C-11.6075 3.1975 -11.2775 2.2075 -10.9375 1.1875 C-7.53373106 -0.51438447 -3.75074101 0.00291886 0 0 Z " fill="#F2BF70" transform="translate(185.9375,106.8125)"/>
<path d="M0 0 C0.33 0.66 0.66 1.32 1 2 C1.99 2 2.98 2 4 2 C4 1.34 4 0.68 4 0 C5.32 0.33 6.64 0.66 8 1 C6.44333045 1.9884096 4.87937574 2.96535082 3.3125 3.9375 C2.44238281 4.48277344 1.57226562 5.02804688 0.67578125 5.58984375 C-1.94624689 6.97167172 -4.08310075 7.58480173 -7 8 C-7 7.34 -7 6.68 -7 6 C-5.02 5.67 -3.04 5.34 -1 5 C-1.33 4.01 -1.66 3.02 -2 2 C-1.34 1.34 -0.68 0.68 0 0 Z " fill="#F5BF71" transform="translate(104,181)"/>
<path d="M0 0 C0.33 0 0.66 0 1 0 C1.31461385 7.09629025 1.44572039 12.68284595 -2 19 C-3.32 18.67 -4.64 18.34 -6 18 C-5.34 17.67 -4.68 17.34 -4 17 C-1.8444826 11.74963421 -0.70849945 6.68426065 -1 1 C-0.67 0.67 -0.34 0.34 0 0 Z " fill="#F6C884" transform="translate(96,125)"/>
<path d="M0 0 C0.598125 0.20625 1.19625 0.4125 1.8125 0.625 C1.8125 3.625 1.8125 3.625 -0.0625 5.8125 C-2.1875 7.625 -2.1875 7.625 -4.1875 7.625 C-4.5175 5.645 -4.8475 3.665 -5.1875 1.625 C-2.1875 -0.375 -2.1875 -0.375 0 0 Z " fill="#FAC25A" transform="translate(163.1875,99.375)"/>
<path d="M0 0 C2.5625 2.125 2.5625 2.125 5 5 C4.8125 8.3125 4.8125 8.3125 4 11 C3.62875 10.0409375 3.62875 10.0409375 3.25 9.0625 C2.18437567 6.81258459 2.18437567 6.81258459 -0.125 6.25 C-0.74375 6.1675 -1.3625 6.085 -2 6 C-1.34 4.02 -0.68 2.04 0 0 Z " fill="#F5C47B" transform="translate(50,160)"/>
<path d="M0 0 C2.64 0.33 5.28 0.66 8 1 C7.67 2.32 7.34 3.64 7 5 C5.02 5.33 3.04 5.66 1 6 C0.67 4.02 0.34 2.04 0 0 Z " fill="#F9C879" transform="translate(151,113)"/>
<path d="M0 0 C0.33 0 0.66 0 1 0 C1.8985997 3.36974887 2.14852081 6.65441178 2.25 10.125 C2.27578125 10.97320312 2.3015625 11.82140625 2.328125 12.6953125 C2 15 2 15 -1 18 C-0.505 9.09 -0.505 9.09 0 0 Z " fill="#F1C57E" transform="translate(237,83)"/>
<path d="M0 0 C0.66 0.33 1.32 0.66 2 1 C1.67 3.31 1.34 5.62 1 8 C-2.3 8.33 -5.6 8.66 -9 9 C-9 8.34 -9 7.68 -9 7 C-7.35 7 -5.7 7 -4 7 C-4 6.34 -4 5.68 -4 5 C-2.68 4.67 -1.36 4.34 0 4 C0 2.68 0 1.36 0 0 Z " fill="#F3C47E" transform="translate(223,138)"/>
<path d="M0 0 C3 1.5625 3 1.5625 6 4 C6.375 7.75 6.375 7.75 6 11 C5.67 9.68 5.34 8.36 5 7 C3.35 7 1.7 7 0 7 C-0.33 6.34 -0.66 5.68 -1 5 C-0.01 4.67 0.98 4.34 2 4 C1.34 2.68 0.68 1.36 0 0 Z " fill="#F6BD72" transform="translate(106,135)"/>
<path d="M0 0 C-3.78912441 2.99972349 -7.88831832 5.47510809 -12 8 C-9.15063376 2.05132312 -6.94284058 -0.63116733 0 0 Z " fill="#F3BE72" transform="translate(167,85)"/>
<path d="M0 0 C0.66 0.33 1.32 0.66 2 1 C-1.875 6.875 -1.875 6.875 -3 8 C-4.66617115 8.04063832 -6.33388095 8.042721 -8 8 C-5.33333333 5.33333333 -2.66666667 2.66666667 0 0 Z " fill="#F2C376" transform="translate(38,183)"/>
<path d="M0 0 C0.33 0.99 0.66 1.98 1 3 C-4.75 4.125 -4.75 4.125 -7 3 C-7 2.34 -7 1.68 -7 1 C-4.53721199 -0.231394 -2.7204945 -0.07159196 0 0 Z " fill="#F9BD61" transform="translate(54,99)"/>
<path d="M0 0 C0.66 0.33 1.32 0.66 2 1 C1.67925956 2.33641852 1.34135927 3.66869885 1 5 C0.566875 6.8253125 0.566875 6.8253125 0.125 8.6875 C-0.24625 9.780625 -0.6175 10.87375 -1 12 C-1.99 12.33 -2.98 12.66 -4 13 C-3.52140759 11.39566191 -3.04210442 9.79153584 -2.5625 8.1875 C-2.29566406 7.29417969 -2.02882812 6.40085938 -1.75390625 5.48046875 C-1.19612127 3.64526945 -0.60655425 1.81966274 0 0 Z " fill="#F1C17F" transform="translate(234,139)"/>
<path d="M0 0 C1.98 0.99 1.98 0.99 4 2 C3.01 2.495 3.01 2.495 2 3 C1.34 2.67 0.68 2.34 0 2 C0 1.34 0 0.68 0 0 Z M-2 2 C-1.01 2.33 -0.02 2.66 1 3 C1.33 4.98 1.66 6.96 2 9 C0.35 9 -1.3 9 -3 9 C-3 8.34 -3 7.68 -3 7 C-2.34 7 -1.68 7 -1 7 C-1.33 5.35 -1.66 3.7 -2 2 Z " fill="#FBC156" transform="translate(156,123)"/>
<path d="M0 0 C2.375 0.9375 2.375 0.9375 3.6875 3 C4.0278125 3.9590625 4.0278125 3.9590625 4.375 4.9375 C3.385 5.4325 3.385 5.4325 2.375 5.9375 C2.375 4.9475 2.375 3.9575 2.375 2.9375 C-0.595 2.9375 -3.565 2.9375 -6.625 2.9375 C-4.29597204 0.78099263 -3.23439697 -0.07700945 0 0 Z " fill="#F4CA8F" transform="translate(102.625,101.0625)"/>
<path d="M0 0 C1 3 1 3 -0.0625 5.625 C-2 8 -2 8 -5.1875 8.8125 C-6.115625 8.874375 -7.04375 8.93625 -8 9 C-5.50174717 5.78796065 -2.9297008 2.82506863 0 0 Z " fill="#F0BF7A" transform="translate(205,141)"/>
<path d="M0 0 C2.69082872 0.17635452 5.32851446 0.61835921 8 1 C4.71536341 3.18975773 1.79303725 3.99806563 -2 5 C-1.125 1.125 -1.125 1.125 0 0 Z " fill="#F0BE70" transform="translate(52,82)"/>
<path d="M0 0 C0.33 0 0.66 0 1 0 C0.98259766 0.90492187 0.98259766 0.90492187 0.96484375 1.828125 C0.95582031 2.62734375 0.94679687 3.4265625 0.9375 4.25 C0.92589844 5.03890625 0.91429687 5.8278125 0.90234375 6.640625 C0.99614694 8.90691002 1.36758937 10.8288895 2 13 C1.01 13.33 0.02 13.66 -1 14 C-2.59789351 9.04653013 -1.28306814 4.86717585 0 0 Z " fill="#FED735" transform="translate(203,93)"/>
<path d="M0 0 C1.32 0.33 2.64 0.66 4 1 C4.33 1.99 4.66 2.98 5 4 C4.01 4.66 3.02 5.32 2 6 C1.34 6.99 0.68 7.98 0 9 C0 6.03 0 3.06 0 0 Z " fill="#FCD735" transform="translate(62,91)"/>
<path d="M0 0 C0.763125 0.20625 1.52625 0.4125 2.3125 0.625 C2.6425 1.945 2.9725 3.265 3.3125 4.625 C0.3425 3.635 -2.6275 2.645 -5.6875 1.625 C-2.6875 -0.375 -2.6875 -0.375 0 0 Z " fill="#F8BE76" transform="translate(93.6875,82.375)"/>
<path d="M0 0 C0 1.65 0 3.3 0 5 C-2.31 4.67 -4.62 4.34 -7 4 C-3.17391304 0 -3.17391304 0 0 0 Z " fill="#F6C27B" transform="translate(103,112)"/>
<path d="M0 0 C0.33 0.66 0.66 1.32 1 2 C0.67 2.66 0.34 3.32 0 4 C0.99 4.33 1.98 4.66 3 5 C1.02 5.99 1.02 5.99 -1 7 C-1.99 6.01 -2.98 5.02 -4 4 C-2.68 2.68 -1.36 1.36 0 0 Z " fill="#FDC87B" transform="translate(152,89)"/>
<path d="M0 0 C2.64 0 5.28 0 8 0 C6.71034824 1.37562854 5.37310707 2.70766393 4 4 C3.34 4 2.68 4 2 4 C2 3.34 2 2.68 2 2 C1.34 2 0.68 2 0 2 C0 1.34 0 0.68 0 0 Z " fill="#F6C26E" transform="translate(218,180)"/>
<path d="M0 0 C0.66 0 1.32 0 2 0 C2 0.66 2 1.32 2 2 C3.32 2.33 4.64 2.66 6 3 C4.68 3 3.36 3 2 3 C2.33 4.32 2.66 5.64 3 7 C2.01 7.495 2.01 7.495 1 8 C0.67 5.36 0.34 2.72 0 0 Z " fill="#F8C885" transform="translate(83,156)"/>
<path d="M0 0 C1.485 0.99 1.485 0.99 3 2 C1.25 6.875 1.25 6.875 -1 8 C-0.67 5.36 -0.34 2.72 0 0 Z " fill="#F6C274" transform="translate(12,110)"/>
<path d="M0 0 C2.31 0.66 4.62 1.32 7 2 C6.34 3.32 5.68 4.64 5 6 C5 5.34 5 4.68 5 4 C4.360625 3.71125 3.72125 3.4225 3.0625 3.125 C1 2 1 2 0 0 Z " fill="#F7C88B" transform="translate(104,92)"/>
<path d="M0 0 C2.97 0.495 2.97 0.495 6 1 C5.67 1.66 5.34 2.32 5 3 C2.4375 3.625 2.4375 3.625 0 4 C0 2.68 0 1.36 0 0 Z " fill="#F9C276" transform="translate(209,186)"/>
<path d="M0 0 C0.33 0.66 0.66 1.32 1 2 C-0.32 3.65 -1.64 5.3 -3 7 C-3.99 6.67 -4.98 6.34 -6 6 C-4.02 4.02 -2.04 2.04 0 0 Z " fill="#F5C382" transform="translate(221,163)"/>
<path d="M0 0 C0.66 0.99 1.32 1.98 2 3 C1.34 3 0.68 3 0 3 C-0.66 4.98 -1.32 6.96 -2 9 C-2.66 9 -3.32 9 -4 9 C-2.80100302 5.9168649 -1.52299523 2.93720508 0 0 Z " fill="#F4BF6F" transform="translate(116,152)"/>
<path d="" fill="#FFFFFF" transform="translate(0,0)"/>
<path d="" fill="#FFFFFF" transform="translate(0,0)"/>
<path d="" fill="#FFFFFF" transform="translate(0,0)"/>
<path d="" fill="#FFFFFF" transform="translate(0,0)"/>
<path d="" fill="#FFFFFF" transform="translate(0,0)"/>
<path d="" fill="#FFFFFF" transform="translate(0,0)"/>
<path d="" fill="#FFFFFF" transform="translate(0,0)"/>
<path d="" fill="#FFFFFF" transform="translate(0,0)"/>
<path d="" fill="#FFFFFF" transform="translate(0,0)"/>
<path d="" fill="#FFFFFF" transform="translate(0,0)"/>
<path d="" fill="#FFFFFF" transform="translate(0,0)"/>
<path d="" fill="#FFFFFF" transform="translate(0,0)"/>
<path d="" fill="#FFFFFF" transform="translate(0,0)"/>
<path d="" fill="#FFFFFF" transform="translate(0,0)"/>
<path d="" fill="#FFFFFF" transform="translate(0,0)"/>
<path d="" fill="#FFFFFF" transform="translate(0,0)"/>
<path d="" fill="#FFFFFF" transform="translate(0,0)"/>
<path d="" fill="#FFFFFF" transform="translate(0,0)"/>
<path d="" fill="#FFFFFF" transform="translate(0,0)"/>
<path d="" fill="#FFFFFF" transform="translate(0,0)"/>
<path d="" fill="#FFFFFF" transform="translate(0,0)"/>
<path d="" fill="#FFFFFF" transform="translate(0,0)"/>
<path d="" fill="#FFFFFF" transform="translate(0,0)"/>
<path d="" fill="#FFFFFF" transform="translate(0,0)"/>
<path d="" fill="#FFFFFF" transform="translate(0,0)"/>
<path d="" fill="#FFFFFF" transform="translate(0,0)"/>
<path d="" fill="#FFFFFF" transform="translate(0,0)"/>
<path d="" fill="#FFFFFF" transform="translate(0,0)"/>
<path d="" fill="#FFFFFF" transform="translate(0,0)"/>
<path d="" fill="#FFFFFF" transform="translate(0,0)"/>
<path d="" fill="#FFFFFF" transform="translate(0,0)"/>
<path d="" fill="#FFFFFF" transform="translate(0,0)"/>
<path d="" fill="#FFFFFF" transform="translate(0,0)"/>
<path d="" fill="#FFFFFF" transform="translate(0,0)"/>
<path d="" fill="#FFFFFF" transform="translate(0,0)"/>
<path d="" fill="#FFFFFF" transform="translate(0,0)"/>
<path d="" fill="#FFFFFF" transform="translate(0,0)"/>
<path d="" fill="#FFFFFF" transform="translate(0,0)"/>
<path d="" fill="#FFFFFF" transform="translate(0,0)"/>
<path d="" fill="#FFFFFF" transform="translate(0,0)"/>
<path d="" fill="#FFFFFF" transform="translate(0,0)"/>
<path d="" fill="#FFFFFF" transform="translate(0,0)"/>
<path d="" fill="#FFFFFF" transform="translate(0,0)"/>
<path d="" fill="#FFFFFF" transform="translate(0,0)"/>
<path d="" fill="#FFFFFF" transform="translate(0,0)"/>
<path d="" fill="#FFFFFF" transform="translate(0,0)"/>
<path d="" fill="#FFFFFF" transform="translate(0,0)"/>
<path d="" fill="#FFFFFF" transform="translate(0,0)"/>
<path d="" fill="#FFFFFF" transform="translate(0,0)"/>
<path d="" fill="#FFFFFF" transform="translate(0,0)"/>
<path d="" fill="#FFFFFF" transform="translate(0,0)"/>
<path d="" fill="#FF00FF" transform="translate(0,0)"/>
<path d="" fill="#FFFFFF" transform="translate(0,0)"/>
<path d="" fill="#FFFFFF" transform="translate(0,0)"/>
<path d="" fill="#FFFFFF" transform="translate(0,0)"/>
<path d="" fill="#FFFFFF" transform="translate(0,0)"/>
<path d="" fill="#FFFFFF" transform="translate(0,0)"/>
<path d="" fill="#FFFFFF" transform="translate(0,0)"/>
<path d="" fill="#FFFFFF" transform="translate(0,0)"/>
<path d="" fill="#FFFFFF" transform="translate(0,0)"/>
<path d="" fill="#FFFFFF" transform="translate(0,0)"/>
<path d="" fill="#FFFFFF" transform="translate(0,0)"/>
<path d="" fill="#FFFFFF" transform="translate(0,0)"/>
</svg>
