<?xml version="1.0" encoding="UTF-8"?>
<svg version="1.1" xmlns="http://www.w3.org/2000/svg" width="500" height="500">
<path d="M0 0 C1.64429954 -0.00258603 3.28859845 -0.00559985 4.93289649 -0.0090034 C9.44106756 -0.01704799 13.94922269 -0.01886154 18.45740008 -0.01960087 C23.32313635 -0.02145572 28.18886443 -0.02900496 33.05459595 -0.03573608 C43.68641628 -0.04929919 54.31823283 -0.05534022 64.95006037 -0.05974674 C71.58755606 -0.0625111 78.2250503 -0.06674866 84.86254501 -0.07125092 C103.23941773 -0.08343812 121.6162893 -0.09374035 139.99316597 -0.09712601 C141.16848491 -0.09734557 142.34380385 -0.09756514 143.55473851 -0.09779136 C144.73285026 -0.09800964 145.910962 -0.09822791 147.1247741 -0.09845281 C149.51204626 -0.09889627 151.89931842 -0.09934284 154.28659058 -0.09979248 C155.47075738 -0.10001391 156.65492418 -0.10023534 157.87497483 -0.10046348 C177.08248043 -0.10441544 196.28994819 -0.12188405 215.49743916 -0.145152 C235.2164393 -0.16884705 254.93542043 -0.18132692 274.65443504 -0.18249393 C285.72660567 -0.18341142 296.7987269 -0.18918308 307.87088394 -0.20731354 C317.2937387 -0.2226892 326.71652879 -0.22784979 336.1393937 -0.21957543 C340.94822412 -0.2156607 345.75692418 -0.2166388 350.56573868 -0.23063278 C354.96611561 -0.24332149 359.36626355 -0.24221871 363.76663993 -0.23004207 C365.36003889 -0.22807639 366.9534538 -0.23120348 368.54683031 -0.23988643 C370.71052131 -0.25093263 372.87339746 -0.24352424 375.03706551 -0.2314949 C376.23948013 -0.23209199 377.44189476 -0.23268908 378.6807462 -0.23330426 C382.42918798 0.19278366 384.79867626 1.10687983 387.96871948 3.14044189 C390.34720585 6.3048147 390.21838663 9.32931458 390.21760845 13.20244789 C390.22450665 15.07790242 390.22450665 15.07790242 390.2315442 16.99124491 C390.22652902 18.38119804 390.22132677 19.77115049 390.21595764 21.16110229 C390.21754544 22.63568402 390.22000875 24.11026503 390.22327405 25.58484399 C390.22969886 29.64234254 390.22361069 33.69974159 390.21550977 37.75723362 C390.20894131 42.13079718 390.21387936 46.50434946 390.21739197 50.87791443 C390.22243814 59.44732005 390.21678729 68.01668713 390.20754167 76.58608796 C390.19716888 86.55773617 390.19722755 96.52937599 390.19771425 106.50102858 C390.19821509 124.28709117 390.18904695 142.07313579 390.17453003 159.85919189 C390.16043792 177.13360929 390.15335942 194.40801086 390.15402222 211.68243408 C390.15406217 212.7466098 390.15410213 213.81078552 390.1541433 214.90720899 C390.15418365 215.96951232 390.15422401 217.03181565 390.15426558 218.12630999 C390.15495473 237.77197677 390.14906988 257.4176368 390.14011237 277.06330139 C390.13709124 284.02096727 390.13603225 290.97863191 390.13558006 297.93629837 C390.13489919 306.40890678 390.13045215 314.88150382 390.12124725 323.35410739 C390.11661818 327.6803562 390.11358784 332.00659043 390.11484146 336.33284187 C390.11593196 340.28777047 390.11244611 344.24266676 390.10519294 348.19758861 C390.10337125 349.63356397 390.10325736 351.06954265 390.10496023 352.50551815 C390.10700884 354.44705207 390.10238198 356.38858969 390.09735394 358.33011818 C390.09664951 359.41167171 390.09594509 360.49322524 390.09521931 361.60755312 C389.96871948 364.14044189 389.96871948 364.14044189 388.96871948 366.14044189 C388.30871948 366.14044189 387.64871948 366.14044189 386.96871948 366.14044189 C386.96871948 366.80044189 386.96871948 367.46044189 386.96871948 368.14044189 C384.08183581 369.58388373 381.59224359 369.27137002 378.36470318 369.27745628 C377.67503701 369.28010811 376.98537084 369.28275994 376.27480569 369.28549212 C373.94072308 369.29321246 371.60669283 369.29374533 369.27259827 369.29434204 C367.59151603 369.29835485 365.91043477 369.30279277 364.22935468 369.3076216 C359.59168503 369.31961296 354.95402579 369.32524146 350.31634367 369.32980275 C345.32168286 369.33574907 340.32703458 369.34736124 335.3323822 369.35809326 C323.26190224 369.38263819 311.19141812 369.39724677 299.12092087 369.41015333 C295.71377653 369.41386351 292.30663261 369.41783687 288.89948869 369.42190599 C267.75757486 369.44713894 246.61566042 369.46919972 225.47373486 369.48163414 C220.57452072 369.484564 215.67530661 369.48752565 210.77609253 369.49053955 C209.55836426 369.4912856 208.34063599 369.49203165 207.08600686 369.49280031 C187.34716257 369.50546153 167.6084082 369.53869379 147.86960598 369.58034138 C127.6208257 369.6227161 107.37209151 369.64632394 87.12326699 369.6515547 C75.74750855 369.65497372 64.37189067 369.66678666 52.99617577 369.69965744 C43.31071484 369.72759773 33.62542327 369.73868379 23.93992516 369.72746198 C18.99548088 369.72226002 14.05139161 369.7252615 9.10699844 369.74992752 C4.58356541 369.77230584 0.06074475 369.77176974 -4.46269818 369.75272365 C-6.10202499 369.74990753 -7.74139232 369.75561098 -9.3806536 369.77053659 C-11.60443487 369.78955171 -13.82601188 369.77791944 -16.04974079 369.75847435 C-17.2861652 369.75983088 -18.52258961 369.76118741 -19.79648143 369.76258504 C-24.02865901 368.94861787 -25.49150831 367.58426237 -28.03128052 364.14044189 C-28.64997166 361.21983224 -28.64997166 361.21983224 -28.64093304 357.92415333 C-28.64965488 356.66489247 -28.65837673 355.40563161 -28.66736287 354.10821134 C-28.65171663 352.7133356 -28.63561079 351.31846496 -28.61909485 349.92359924 C-28.61984304 348.4399034 -28.62279576 346.95620729 -28.62776452 345.47251958 C-28.63507003 341.39424532 -28.61118149 337.31665513 -28.58229053 333.23849857 C-28.55660735 328.84111404 -28.55983289 324.44374136 -28.55964661 320.04629517 C-28.55544506 312.42662403 -28.53314242 304.80717827 -28.49880028 297.18758583 C-28.44933863 286.16875871 -28.42935015 275.15003079 -28.41696957 264.13110676 C-28.39626471 246.25126042 -28.35468788 228.37152852 -28.2986145 210.49176025 C-28.2442284 193.12718867 -28.19465512 175.7626225 -28.15505981 158.39801025 C-28.15261539 157.32812327 -28.15017097 156.25823628 -28.14765247 155.15592847 C-28.12122769 143.48351812 -28.0973744 131.81110534 -28.07726765 120.13868237 C-28.07550033 119.11378057 -28.07373301 118.08887877 -28.07191214 117.03291934 C-28.06490095 112.93661945 -28.0579449 108.84031952 -28.05134956 104.74401893 C-28.03198985 92.73537931 -28.00444784 80.72682617 -27.96221504 68.7182441 C-27.93600344 61.19048022 -27.91632223 53.66271918 -27.90184375 46.13492361 C-27.89316547 41.78635553 -27.88101929 37.4378626 -27.86016083 33.08933449 C-27.84111281 29.1140899 -27.83108756 25.13893187 -27.82841913 21.1636435 C-27.82577828 19.72028373 -27.81968123 18.27692561 -27.80990805 16.83359651 C-27.79715219 14.88217175 -27.79775016 12.93067299 -27.79915142 10.97920704 C-27.79568162 9.89212005 -27.79221181 8.80503307 -27.78863686 7.68500406 C-27.77478973 4.97240599 -27.77478973 4.97240599 -30.03128052 3.14044189 C-20.28459954 -0.51456347 -10.24947213 -0.0064494 0 0 Z M-10.03128052 18.14044189 C-10.03128052 29.36044189 -10.03128052 40.58044189 -10.03128052 52.14044189 C116.02871948 52.14044189 242.08871948 52.14044189 371.96871948 52.14044189 C371.96871948 40.92044189 371.96871948 29.70044189 371.96871948 18.14044189 C245.90871948 18.14044189 119.84871948 18.14044189 -10.03128052 18.14044189 Z M-10.03128052 70.14044189 C-10.03128052 163.20044189 -10.03128052 256.26044189 -10.03128052 352.14044189 C116.02871948 352.14044189 242.08871948 352.14044189 371.96871948 352.14044189 C371.96871948 259.08044189 371.96871948 166.02044189 371.96871948 70.14044189 C245.90871948 70.14044189 119.84871948 70.14044189 -10.03128052 70.14044189 Z " fill="#FDBC61" transform="translate(69.03128051757813,64.85955810546875)"/>
<path d="M0 0 C1.07121094 0.70189453 1.07121094 0.70189453 2.1640625 1.41796875 C3.82345116 2.54516304 5.420245 3.76367 7 5 C7 5.66 7 6.32 7 7 C7.66 7 8.32 7 9 7 C10.76953125 8.80078125 10.76953125 8.80078125 12.8125 11.3125 C13.81216797 12.51326172 13.81216797 12.51326172 14.83203125 13.73828125 C20.38828206 22.09768563 22.74823558 29.44415083 22.64697266 39.44726562 C22.65573425 40.53335617 22.66449585 41.61944672 22.67352295 42.7384491 C22.69535927 46.2948006 22.68101917 49.84988795 22.6640625 53.40625 C22.66743513 55.89766679 22.67229146 58.38908197 22.67855835 60.88049316 C22.6859084 66.08862047 22.67528375 71.29631746 22.65185547 76.50439453 C22.62336934 83.15885678 22.63978291 89.81189018 22.66971779 96.46637726 C22.68784078 101.60703034 22.68200962 106.74744684 22.66907883 111.8881073 C22.66575868 114.34075543 22.66978253 116.79342548 22.68147659 119.24604797 C22.69426712 122.68218358 22.67469134 126.11671718 22.64697266 129.55273438 C22.65709381 130.5525383 22.66721497 131.55234222 22.67764282 132.58244324 C22.5354459 142.16392585 18.99389251 150.25833333 12.875 157.625 C12.21242188 158.44226563 11.54984375 159.25953125 10.8671875 160.1015625 C9 162 9 162 6 163 C6 163.66 6 164.32 6 165 C-7.47799674 178.01323823 -30.1437792 183.8504805 -48.22265625 184.7890625 C-50.86784199 184.89455791 -50.86784199 184.89455791 -52.81298828 185.52563477 C-66.02922627 188.39225124 -84.42768252 184.49346839 -97 180 C-98.02480469 179.64035156 -99.04960937 179.28070313 -100.10546875 178.91015625 C-109.18954827 175.41989542 -118.56595526 170.32608615 -126 164 C-126 163.34 -126 162.68 -126 162 C-126.66 162 -127.32 162 -128 162 C-128 161.34 -128 160.68 -128 160 C-128.598125 159.74992188 -129.19625 159.49984375 -129.8125 159.2421875 C-136.00339335 155.72664449 -139.11027059 147.42116002 -141.18389893 140.93417358 C-143.3171064 132.1304444 -142.52354274 122.60015032 -142.4609375 113.61328125 C-142.45854898 111.34270838 -142.45764862 109.07213351 -142.4581604 106.80155945 C-142.45504553 102.06183351 -142.43857849 97.32241285 -142.41162109 92.58276367 C-142.37758524 86.52377058 -142.36999507 80.46511104 -142.37151146 74.40603352 C-142.37096639 69.72445016 -142.35997811 65.04293892 -142.34550858 60.36137962 C-142.33917023 58.12758109 -142.33520866 55.89377445 -142.33372116 53.65996742 C-142.32935984 50.53529703 -142.3117998 47.41097234 -142.29052734 44.28637695 C-142.29143372 43.37446091 -142.29234009 42.46254486 -142.29327393 41.522995 C-142.21634112 33.7513286 -141.18095289 26.56045392 -137.5 19.625 C-136.86578125 18.40683594 -136.86578125 18.40683594 -136.21875 17.1640625 C-135.22341918 15.39671225 -134.12512705 13.68769057 -133 12 C-132.34 12 -131.68 12 -131 12 C-130.7525 11.41992188 -130.505 10.83984375 -130.25 10.2421875 C-122.74462175 -3.22058474 -104.50665588 -8.53655132 -90.82421875 -13.046875 C-60.63011152 -20.57227047 -26.19795989 -17.54412115 0 0 Z M-115.796875 20.61328125 C-117.21844516 21.94579735 -117.21844516 21.94579735 -117 24 C-117.66 24 -118.32 24 -119 24 C-123.23425515 30.41967717 -124.91862453 36.3195295 -123.4375 44 C-121.56201617 50.3664383 -117.61112676 56.39933769 -112 60 C-111.34 60 -110.68 60 -110 60 C-110 60.66 -110 61.32 -110 62 C-87.23404094 74.6547331 -61.06450199 79.79700824 -35.3125 73.3125 C-33.18935451 72.59559373 -31.08212811 71.82851912 -29 71 C-27.43572266 70.43925781 -27.43572266 70.43925781 -25.83984375 69.8671875 C-17.87488068 66.82620287 -8.60945094 62.65777456 -3 56 C-3 55.34 -3 54.68 -3 54 C-2.34 54 -1.68 54 -1 54 C4.3613731 45.03579898 4.3613731 45.03579898 5 35 C1.53554987 24.27945156 -5.42160651 17.60780776 -15 12 C-46.31023084 -3.49185234 -88.77546249 -3.64724781 -115.796875 20.61328125 Z M-124 74 C-124.36287748 86.27735475 -122.6323219 94.56562987 -114.3203125 103.8828125 C-99.98845608 117.59956779 -75.77686651 122.69881034 -56.5546875 122.31640625 C-40.94388219 120.92687303 -24.33081038 117.56980667 -11 109 C-11 108.34 -11 107.68 -11 107 C-10.443125 106.773125 -9.88625 106.54625 -9.3125 106.3125 C-3.00884132 102.73474778 2.05888348 96.25340859 4.47265625 89.46875 C5.55849929 84.38539593 5.21266265 79.16691469 5 74 C2.76735609 75.06167682 0.67898544 76.20121753 -1.41796875 77.515625 C-25.6102777 92.66567461 -58.36533534 96.64799821 -86 90.3125 C-88.69622006 89.62449261 -91.34785227 88.84070905 -94 88 C-94.63808594 87.80744629 -95.27617187 87.61489258 -95.93359375 87.41650391 C-103.13237307 85.21380993 -109.5301292 82.41676547 -115.8671875 78.359375 C-118.49487101 76.68458771 -121.1868588 75.33254057 -124 74 Z M-124 120 C-124.36220657 132.25465578 -122.67475965 140.68458262 -114.25 149.91796875 C-97.99704023 165.25669953 -74.52958387 167.64771315 -53.29296875 167.31640625 C-34.0766487 166.62274963 -17.5633679 160.08719327 -3.0625 147.4375 C2.31507508 141.082184 5.29394077 134.55006822 5.125 126.1875 C5.10695313 125.02605469 5.08890625 123.86460937 5.0703125 122.66796875 C5.04710937 121.78753906 5.02390625 120.90710938 5 120 C2.76735609 121.06167682 0.67898544 122.20121753 -1.41796875 123.515625 C-26.30029046 139.09778415 -59.05558812 142.35257872 -87.42578125 135.90234375 C-88.60527344 135.60457031 -89.78476562 135.30679688 -91 135 C-92.12792969 134.73316406 -93.25585938 134.46632813 -94.41796875 134.19140625 C-102.09201358 132.12849097 -108.47307479 128.71693641 -115.19921875 124.609375 C-117.75064299 122.83392627 -117.75064299 122.83392627 -120 123 C-120 122.34 -120 121.68 -120 121 C-121.32 120.67 -122.64 120.34 -124 120 Z " fill="#FEBC60" transform="translate(409,191)"/>
<path d="M0 0 C1.20916077 -0.00642769 1.20916077 -0.00642769 2.44274902 -0.01298523 C4.14395205 -0.01871807 5.84517958 -0.0192365 7.54638672 -0.01489258 C10.14723493 -0.01172971 12.74694834 -0.03521371 15.34765625 -0.06054688 C17.00260273 -0.06281971 18.65755227 -0.06352344 20.3125 -0.0625 C21.08863647 -0.07170975 21.86477295 -0.08091949 22.66442871 -0.09040833 C25.93826277 -0.06238017 28.25597009 0.07509947 31.13745117 1.69970703 C33.95847882 4.67355357 33.6309839 8.37190254 33.65625 12.30078125 C33.45916399 15.0151931 33.09655974 17.60999952 32.65625 20.30078125 C33.31625 20.21828125 33.97625 20.13578125 34.65625 20.05078125 C38.28180299 20.35291067 40.62697596 21.6117395 43.7890625 23.328125 C45.79079486 24.43331304 45.79079486 24.43331304 48.65625 25.30078125 C49.0275 24.46546875 49.0275 24.46546875 49.40625 23.61328125 C51.21864774 20.26034544 53.18739492 17.03520879 56.65625 15.30078125 C60.37357615 14.54900493 62.07726022 14.31925873 65.65625 15.30078125 C69.70042248 18.17360706 73.10125923 21.4920922 76.53417969 25.06030273 C78.15136525 26.73322813 79.80900567 28.35596807 81.4765625 29.97851562 C90.20437945 38.69446352 90.20437945 38.69446352 91.0078125 44.37109375 C90.54409612 49.55441236 89.50678112 50.86878612 85.65625 54.30078125 C82.84375 55.67578125 82.84375 55.67578125 80.65625 56.30078125 C81.27602129 59.93459818 82.28670131 63.0955064 83.71875 66.48828125 C85.65625 71.08725812 85.65625 71.08725812 85.65625 73.30078125 C86.1925 73.14351563 86.72875 72.98625 87.28125 72.82421875 C90.10366717 72.20217286 92.76712117 72.01967794 95.65625 71.92578125 C96.6875 71.87679687 97.71875 71.8278125 98.78125 71.77734375 C101.65625 72.30078125 101.65625 72.30078125 103.80053711 74.30810547 C106.16682056 78.12416948 106.25080411 81.34945638 106.22265625 85.70703125 C106.22885483 86.50935181 106.23505341 87.31167236 106.24143982 88.13830566 C106.24852243 89.8293334 106.24539116 91.52043109 106.23266602 93.21142578 C106.2187902 95.79330074 106.25289948 98.37155535 106.29101562 100.953125 C106.29196684 102.6002613 106.29010789 104.24740212 106.28515625 105.89453125 C106.29841446 106.66236938 106.31167267 107.43020752 106.32533264 108.22131348 C106.255811 112.23876479 105.81585807 114.09763768 103.30493164 117.29345703 C100.09674972 119.72480294 98.50702363 119.8651038 94.53125 119.67578125 C93.49742187 119.64226562 92.46359375 119.60875 91.3984375 119.57421875 C88.65625 119.30078125 88.65625 119.30078125 85.65625 118.30078125 C85.388125 119.49703125 85.12 120.69328125 84.84375 121.92578125 C83.9171387 125.68555659 82.45577659 128.8653214 80.65625 132.30078125 C80.65625 132.96078125 80.65625 133.62078125 80.65625 134.30078125 C82.64175212 136.04257061 82.64175212 136.04257061 85.09375 137.80078125 C89.55327233 141.09482592 89.55327233 141.09482592 90.65625 143.30078125 C91.0266695 148.47621994 90.64552393 151.0140914 87.44580078 155.17578125 C84.5147736 158.36710734 81.37172723 161.33167701 78.21875 164.30078125 C77.13038581 165.35754933 76.04377812 166.41612961 74.95898438 167.4765625 C65.23978602 176.910341 65.23978602 176.910341 58.0546875 176.93359375 C53.34241463 175.69029049 51.09738808 171.25683782 48.65625 167.30078125 C43.21057314 168.3294091 38.53807883 169.54692909 33.65625 172.30078125 C33.67945313 173.10902344 33.70265625 173.91726563 33.7265625 174.75 C33.74460937 175.81863281 33.76265625 176.88726562 33.78125 177.98828125 C33.80445313 179.04402344 33.82765625 180.09976563 33.8515625 181.1875 C33.64291584 184.51332774 33.42276034 186.46760756 31.65625 189.30078125 C25.60225193 193.33091369 18.76065635 192.75838787 11.6953125 192.69189453 C9.6607762 192.67581702 7.62822568 192.69179065 5.59375 192.7109375 C-6.81495098 192.67400684 -6.81495098 192.67400684 -12.34375 189.30078125 C-13.86481634 186.25864858 -13.71804338 183.02030553 -13.90625 179.67578125 C-13.94943359 178.969375 -13.99261719 178.26296875 -14.03710938 177.53515625 C-14.14319751 175.79059588 -14.24397889 174.04571428 -14.34375 172.30078125 C-16.09177146 171.48403329 -17.84225189 170.67254674 -19.59375 169.86328125 C-21.05554688 169.18458984 -21.05554688 169.18458984 -22.546875 168.4921875 C-24.83626695 167.51695769 -26.91753746 166.80335385 -29.34375 166.30078125 C-29.570625 167.02265625 -29.7975 167.74453125 -30.03125 168.48828125 C-31.69965349 172.06343158 -33.16283565 173.93201524 -36.34375 176.30078125 C-39.52145305 177.09967845 -42.16378689 177.08629173 -45.34375 176.30078125 C-48.08107444 174.65438319 -50.33663377 172.79192873 -52.34375 170.30078125 C-52.34375 169.64078125 -52.34375 168.98078125 -52.34375 168.30078125 C-53.00375 168.30078125 -53.66375 168.30078125 -54.34375 168.30078125 C-55.96875 166.92578125 -55.96875 166.92578125 -57.34375 165.30078125 C-57.34375 164.64078125 -57.34375 163.98078125 -57.34375 163.30078125 C-58.33375 162.97078125 -59.32375 162.64078125 -60.34375 162.30078125 C-60.34375 161.64078125 -60.34375 160.98078125 -60.34375 160.30078125 C-60.9625 160.05328125 -61.58125 159.80578125 -62.21875 159.55078125 C-64.69443687 158.09449486 -65.29500002 156.92265619 -66.34375 154.30078125 C-67.00375 154.30078125 -67.66375 154.30078125 -68.34375 154.30078125 C-68.34375 153.64078125 -68.34375 152.98078125 -68.34375 152.30078125 C-69.00375 152.30078125 -69.66375 152.30078125 -70.34375 152.30078125 C-71.67776084 145.1456322 -71.67776084 145.1456322 -70.28125 141.61328125 C-68.62381539 139.63505285 -67.17705151 138.34750847 -65.15625 136.80078125 C-62.13998153 134.66167701 -62.13998153 134.66167701 -62.01171875 131.9765625 C-62.39860773 128.85869246 -63.3685573 126.75426756 -64.84375 123.98828125 C-65.3078125 123.10527344 -65.771875 122.22226562 -66.25 121.3125 C-66.6109375 120.64863281 -66.971875 119.98476563 -67.34375 119.30078125 C-68.30796875 119.3471875 -69.2721875 119.39359375 -70.265625 119.44140625 C-71.52890625 119.4775 -72.7921875 119.51359375 -74.09375 119.55078125 C-75.34671875 119.5971875 -76.5996875 119.64359375 -77.890625 119.69140625 C-81.34375 119.30078125 -81.34375 119.30078125 -83.734375 117.53515625 C-87.8067781 111.88123738 -86.56628258 104.33473901 -86.58398438 97.65673828 C-86.59368755 95.44004757 -86.62473383 93.22428582 -86.65625 91.0078125 C-86.66278134 89.58724505 -86.6680313 88.16667101 -86.671875 86.74609375 C-86.6812207 85.46234863 -86.69056641 84.17860352 -86.70019531 82.85595703 C-86.31343505 78.99842081 -85.37206152 76.58397935 -83.34375 73.30078125 C-80.27841836 71.76811543 -77.07620728 72.19801654 -73.71875 72.23828125 C-72.65914062 72.24504883 -72.65914062 72.24504883 -71.578125 72.25195312 C-69.83329725 72.2637425 -68.088513 72.28167801 -66.34375 72.30078125 C-65.99441406 71.38554687 -65.64507812 70.4703125 -65.28515625 69.52734375 C-64.83011719 68.33882813 -64.37507813 67.1503125 -63.90625 65.92578125 C-63.45378906 64.74242187 -63.00132813 63.5590625 -62.53515625 62.33984375 C-61.34375 59.30078125 -61.34375 59.30078125 -60.34375 57.30078125 C-60.900625 57.05328125 -61.4575 56.80578125 -62.03125 56.55078125 C-65.46116972 54.69677059 -68.34878249 52.61232933 -70.71875 49.48828125 C-71.72535848 45.96515158 -71.34674706 43.84077086 -70.34375 40.30078125 C-68.25743228 37.37884413 -65.86497997 34.84965628 -63.34375 32.30078125 C-62.580625 31.47578125 -61.8175 30.65078125 -61.03125 29.80078125 C-59.34375 28.30078125 -59.34375 28.30078125 -57.34375 28.30078125 C-57.34375 27.64078125 -57.34375 26.98078125 -57.34375 26.30078125 C-56.68375 26.30078125 -56.02375 26.30078125 -55.34375 26.30078125 C-55.01375 25.31078125 -54.68375 24.32078125 -54.34375 23.30078125 C-53.68375 23.30078125 -53.02375 23.30078125 -52.34375 23.30078125 C-52.34375 22.64078125 -52.34375 21.98078125 -52.34375 21.30078125 C-51.68375 21.30078125 -51.02375 21.30078125 -50.34375 21.30078125 C-50.075625 20.68203125 -49.8075 20.06328125 -49.53125 19.42578125 C-48.34375 17.30078125 -48.34375 17.30078125 -45.34375 15.30078125 C-42.20003426 14.55749962 -39.481344 14.51249317 -36.34375 15.30078125 C-33.47462027 17.60026591 -31.28996234 20.18433834 -29.34375 23.30078125 C-29.34375 23.96078125 -29.34375 24.62078125 -29.34375 25.30078125 C-28.52390625 24.93984375 -27.7040625 24.57890625 -26.859375 24.20703125 C-25.78171875 23.74296875 -24.7040625 23.27890625 -23.59375 22.80078125 C-22.52640625 22.33671875 -21.4590625 21.87265625 -20.359375 21.39453125 C-17.34375 20.30078125 -17.34375 20.30078125 -13.34375 20.30078125 C-13.43914062 19.3365625 -13.53453125 18.37234375 -13.6328125 17.37890625 C-13.74367188 16.115625 -13.85453125 14.85234375 -13.96875 13.55078125 C-14.14277344 11.67132813 -14.14277344 11.67132813 -14.3203125 9.75390625 C-14.34293017 6.42156892 -14.33556895 4.91580735 -12.34375 2.30078125 C-8.56783105 -0.33029233 -4.4206269 -0.00519109 0 0 Z M5.65625 17.30078125 C5.65625 22.25078125 5.65625 27.20078125 5.65625 32.30078125 C3.92375 32.85765625 3.92375 32.85765625 2.15625 33.42578125 C-11.42674149 37.60460288 -11.42674149 37.60460288 -23.84375 44.23828125 C-26.49258711 46.02945524 -28.24687464 46.67748421 -31.46875 46.55078125 C-36.28169761 45.60911759 -38.67762011 42.16868938 -41.34375 38.30078125 C-44.67010882 39.82650781 -46.29938002 41.23422629 -48.34375 44.30078125 C-47.395 45.12578125 -46.44625 45.95078125 -45.46875 46.80078125 C-44.66824219 47.496875 -44.66824219 47.496875 -43.8515625 48.20703125 C-42.38438579 49.49650583 -42.38438579 49.49650583 -40.34375 49.30078125 C-38.98176858 57.17000725 -41.56918414 62.45224702 -45.21020508 69.17456055 C-48.1181515 74.59960382 -49.85115978 79.71471491 -51.26171875 85.7265625 C-52.6784967 89.09716419 -54.00203265 89.895741 -57.34375 91.30078125 C-60.23828125 91.59375 -60.23828125 91.59375 -63.15625 91.48828125 C-64.61998047 91.44767578 -64.61998047 91.44767578 -66.11328125 91.40625 C-66.84933594 91.37144531 -67.58539063 91.33664062 -68.34375 91.30078125 C-68.34375 94.27078125 -68.34375 97.24078125 -68.34375 100.30078125 C-67.53550781 100.24277344 -66.72726563 100.18476563 -65.89453125 100.125 C-64.29158203 100.05732422 -64.29158203 100.05732422 -62.65625 99.98828125 C-61.60050781 99.93027344 -60.54476562 99.87226563 -59.45703125 99.8125 C-55.23164953 100.47520102 -53.92487959 101.94214853 -51.34375 105.30078125 C-50.15625 108.53515625 -50.15625 108.53515625 -49.34375 112.05078125 C-47.77179897 118.14688402 -45.6194379 122.97500296 -42.34375 128.30078125 C-40.20890733 132.14794564 -39.87605231 134.85765319 -40.34375 139.30078125 C-42.57770606 142.73149948 -45.40208697 145.46417761 -48.34375 148.30078125 C-47.68375 148.30078125 -47.02375 148.30078125 -46.34375 148.30078125 C-45.68375 149.62078125 -45.02375 150.94078125 -44.34375 152.30078125 C-43.02375 152.30078125 -41.70375 152.30078125 -40.34375 152.30078125 C-39.60125 151.33140625 -38.85875 150.36203125 -38.09375 149.36328125 C-35.91750785 146.59171449 -35.25686618 146.27132911 -31.65625 145.05078125 C-26.93616912 144.78757971 -24.0709294 147.06465991 -20.265625 149.60546875 C-15.67909973 152.26663448 -10.80799168 153.65386674 -5.76171875 155.22265625 C3.44725121 158.12742849 3.44725121 158.12742849 5.65625 162.30078125 C5.94921875 165.31640625 5.94921875 165.31640625 5.84375 168.55078125 C5.81667969 169.6284375 5.78960937 170.70609375 5.76171875 171.81640625 C5.70951172 173.04617188 5.70951172 173.04617188 5.65625 174.30078125 C8.62625 174.30078125 11.59625 174.30078125 14.65625 174.30078125 C14.62144531 173.32496094 14.58664063 172.34914063 14.55078125 171.34375 C14.52371094 170.07144531 14.49664062 168.79914063 14.46875 167.48828125 C14.43394531 166.22371094 14.39914063 164.95914063 14.36328125 163.65625 C14.65625 160.30078125 14.65625 160.30078125 15.7578125 158.46875 C18.45803296 156.80750326 21.14575319 156.18812733 24.21875 155.42578125 C31.76652023 153.39279051 38.13589584 150.37157782 44.84375 146.42578125 C48.69955523 144.88345916 50.70199917 145.02977205 54.65625 146.30078125 C56.9642152 148.42613822 58.83790801 150.749774 60.65625 153.30078125 C63.79324108 151.89819686 63.79324108 151.89819686 65.96875 149.30078125 C66.3090625 148.31078125 66.3090625 148.31078125 66.65625 147.30078125 C66.32625 146.64078125 65.99625 145.98078125 65.65625 145.30078125 C64.99625 145.30078125 64.33625 145.30078125 63.65625 145.30078125 C63.65625 144.64078125 63.65625 143.98078125 63.65625 143.30078125 C62.99625 142.74390625 62.33625 142.18703125 61.65625 141.61328125 C59.52660508 139.15087931 58.89136528 137.71156424 59.0703125 134.44921875 C60.14287377 130.51649411 62.62791829 127.26911033 64.78125 123.84375 C67.43343406 119.22782683 68.64518831 114.14477987 69.8815918 109.00048828 C70.65183219 105.97071246 71.31915504 103.68217154 73.41015625 101.31640625 C76.37129839 99.97745502 78.66951672 100.0077356 81.90625 100.11328125 C82.98390625 100.14035156 84.0615625 100.16742188 85.171875 100.1953125 C85.99171875 100.23011719 86.8115625 100.26492188 87.65625 100.30078125 C87.65625 97.33078125 87.65625 94.36078125 87.65625 91.30078125 C86.53476562 91.33558594 86.53476562 91.33558594 85.390625 91.37109375 C84.40578125 91.38914062 83.4209375 91.4071875 82.40625 91.42578125 C81.43171875 91.44898438 80.4571875 91.4721875 79.453125 91.49609375 C76.52813049 91.29183436 75.00781656 91.03844326 72.65625 89.30078125 C71.53125 87.05078125 71.53125 87.05078125 70.65625 84.30078125 C70.32496094 83.31335938 69.99367187 82.3259375 69.65234375 81.30859375 C69.32363281 80.31601562 68.99492187 79.3234375 68.65625 78.30078125 C66.7648644 73.13967236 64.74008212 68.33101304 61.90625 63.61328125 C59.66644084 59.66926946 58.77231815 56.89722686 59.65625 52.30078125 C62.03125 49.48828125 62.03125 49.48828125 64.65625 47.30078125 C65.31625 46.64078125 65.97625 45.98078125 66.65625 45.30078125 C66.63358657 43.28854001 66.63358657 43.28854001 65.65625 41.30078125 C63.67954393 39.54655353 63.67954393 39.54655353 61.65625 38.30078125 C60.8725 39.08453125 60.08875 39.86828125 59.28125 40.67578125 C54.33192568 45.62510557 54.33192568 45.62510557 50.03125 45.73828125 C45.19802773 45.64826422 42.59075633 44.42478675 38.71484375 41.671875 C32.98149704 37.85327027 26.30580804 35.97920351 19.56640625 34.890625 C17.05244319 34.11432966 16.12554391 33.50928514 14.65625 31.30078125 C14.36328125 27.9453125 14.36328125 27.9453125 14.46875 24.11328125 C14.49582031 22.84097656 14.52289063 21.56867188 14.55078125 20.2578125 C14.58558594 19.28199219 14.62039062 18.30617187 14.65625 17.30078125 C11.68625 17.30078125 8.71625 17.30078125 5.65625 17.30078125 Z " fill="#FEBD60" transform="translate(154.34375,179.69921875)"/>
<path d="M0 0 C0.99 0.66 1.98 1.32 3 2 C3 2.66 3 3.32 3 4 C3.66 4 4.32 4 5 4 C16.31265498 17.59747692 19.98732939 31.58115854 18.640625 49.03515625 C17.4861017 57.7700365 13.74029762 66.36102565 8 73 C7.46117187 73.66644531 6.92234375 74.33289063 6.3671875 75.01953125 C5.87476563 75.61121094 5.38234375 76.20289063 4.875 76.8125 C4.37742187 77.41707031 3.87984375 78.02164063 3.3671875 78.64453125 C2 80 2 80 0 80 C0 80.66 0 81.32 0 82 C-2.51712189 83.29935464 -5.03829087 84.58954372 -7.5625 85.875 C-8.26697266 86.23980469 -8.97144531 86.60460937 -9.69726562 86.98046875 C-21.88422694 93.15819107 -35.79228285 94.12742577 -49 90.4375 C-63.25948466 85.31498449 -74.35375165 75.57842834 -81 62 C-87.45935614 45.68246446 -85.4964338 30.91918912 -79 15 C-78.34 15 -77.68 15 -77 15 C-76.92523438 14.44699219 -76.85046875 13.89398438 -76.7734375 13.32421875 C-75.71313594 10.13795902 -73.88089078 8.283759 -71.625 5.8125 C-70.43777344 4.49185547 -70.43777344 4.49185547 -69.2265625 3.14453125 C-67 1 -67 1 -64 0 C-64 -0.66 -64 -1.32 -64 -2 C-42.15416351 -15.05679589 -20.93514191 -14.00632363 0 0 Z M-53 13 C-53 13.66 -53 14.32 -53 15 C-53.5775 15.226875 -54.155 15.45375 -54.75 15.6875 C-60.46340926 19.02032207 -64.02485557 25.85597365 -66 32 C-67.2291037 42.36859276 -66.52614225 51.77154761 -60.234375 60.4296875 C-54.45647144 67.36772131 -48.01303873 72.31960295 -39 74 C-29.94251996 74.78274519 -22.05091155 73.21801744 -14 69 C-14 68.34 -14 67.68 -14 67 C-13.4121875 66.73960937 -12.824375 66.47921875 -12.21875 66.2109375 C-6.21170571 62.93244502 -2.82164858 57.35756527 -0.5625 51.0625 C2.32807774 41.06435449 1.1189317 33.56227874 -3 24 C-4.49827525 21.34335672 -5.99121333 19.32596351 -8 17 C-8.66 17 -9.32 17 -10 17 C-10 16.34 -10 15.68 -10 15 C-23.01426236 4.23474611 -39.2119466 3.91241935 -53 13 Z " fill="#FEBC60" transform="translate(197,235)"/>
<path d="M0 0 C2.65563802 1.8968843 3.57242527 3.14485055 5 6 C5.01953125 8.05859375 5.01953125 8.05859375 4.8125 10.4375 C4.75707031 11.21996094 4.70164062 12.00242187 4.64453125 12.80859375 C4 15 4 15 2.2890625 16.7578125 C-1.91450201 19.03892771 -6.35977753 18.61182193 -11 18 C-14.70199213 16.07496409 -15.675924 15.01543814 -16.9375 11.0625 C-17.00605081 7.70351015 -16.65340214 5.9131371 -15 3 C-10.5734167 -1.11821458 -5.74725926 -0.8123026 0 0 Z " fill="#FDBE65" transform="translate(352,91)"/>
<path d="M0 0 C3.0625 1.5625 3.0625 1.5625 5 4 C6.0625 7.375 6.0625 7.375 6 11 C4.5167749 13.66980517 3.15883622 15.84116378 1 18 C-4.58180607 18.59927366 -9.38488075 18.99391954 -14.25 16 C-16.16472235 12.71761884 -16.8127384 10.69553532 -16.53515625 6.9375 C-15.77533029 4.18659726 -14.30002822 2.47300077 -11.98046875 0.84765625 C-8.03610807 -0.84056124 -4.17164629 -0.73699084 0 0 Z " fill="#FCBE65" transform="translate(383,91)"/>
<path d="M0 0 C3.02251455 1.68270243 3.37873741 2.69957259 5 6 C5.28741062 9.18863108 5.14902153 11.99882435 4 15 C1.81738269 17.2023695 0.44692285 17.9260679 -2.62109375 18.43359375 C-6.91765648 18.43955292 -10.20738785 18.34191112 -14.1875 16.625 C-16.59547661 13.1375856 -16.71746188 10.52900374 -16.46484375 6.3515625 C-16 4 -16 4 -14.1875 1.375 C-9.41949241 -0.68178759 -5.09997503 -0.98487542 0 0 Z " fill="#FCBD64" transform="translate(415,91)"/>
<path d="" fill="#FFFFFF" transform="translate(0,0)"/>
<path d="" fill="#FFFFFF" transform="translate(0,0)"/>
<path d="" fill="#FFFFFF" transform="translate(0,0)"/>
<path d="" fill="#FFFFFF" transform="translate(0,0)"/>
<path d="" fill="#FFFFFF" transform="translate(0,0)"/>
<path d="" fill="#FFFFFF" transform="translate(0,0)"/>
<path d="" fill="#FFFFFF" transform="translate(0,0)"/>
<path d="" fill="#FFFFFF" transform="translate(0,0)"/>
<path d="" fill="#FFFFFF" transform="translate(0,0)"/>
<path d="" fill="#FFFFFF" transform="translate(0,0)"/>
<path d="" fill="#FFFFFF" transform="translate(0,0)"/>
<path d="" fill="#FFFFFF" transform="translate(0,0)"/>
<path d="" fill="#FFFFFF" transform="translate(0,0)"/>
<path d="" fill="#FFFFFF" transform="translate(0,0)"/>
<path d="" fill="#FFFFFF" transform="translate(0,0)"/>
<path d="" fill="#FFFFFF" transform="translate(0,0)"/>
<path d="" fill="#FFFFFF" transform="translate(0,0)"/>
<path d="" fill="#FFFFFF" transform="translate(0,0)"/>
<path d="" fill="#FFFFFF" transform="translate(0,0)"/>
<path d="" fill="#FFFFFF" transform="translate(0,0)"/>
<path d="" fill="#FFFFFF" transform="translate(0,0)"/>
<path d="" fill="#FFFFFF" transform="translate(0,0)"/>
<path d="" fill="#FFFFFF" transform="translate(0,0)"/>
<path d="" fill="#FFFFFF" transform="translate(0,0)"/>
<path d="" fill="#FFFFFF" transform="translate(0,0)"/>
<path d="" fill="#FFFFFF" transform="translate(0,0)"/>
<path d="" fill="#FFFFFF" transform="translate(0,0)"/>
<path d="" fill="#FFFFFF" transform="translate(0,0)"/>
<path d="" fill="#FFFFFF" transform="translate(0,0)"/>
<path d="" fill="#FFFFFF" transform="translate(0,0)"/>
<path d="" fill="#FFFFFF" transform="translate(0,0)"/>
<path d="" fill="#FFFFFF" transform="translate(0,0)"/>
<path d="" fill="#FFFFFF" transform="translate(0,0)"/>
<path d="" fill="#FFFFFF" transform="translate(0,0)"/>
<path d="" fill="#FFFFFF" transform="translate(0,0)"/>
<path d="" fill="#FFFFFF" transform="translate(0,0)"/>
<path d="" fill="#FFFFFF" transform="translate(0,0)"/>
<path d="" fill="#FFFFFF" transform="translate(0,0)"/>
<path d="" fill="#FFFFFF" transform="translate(0,0)"/>
<path d="" fill="#FFFFFF" transform="translate(0,0)"/>
<path d="" fill="#FFFFFF" transform="translate(0,0)"/>
<path d="" fill="#FFFFFF" transform="translate(0,0)"/>
<path d="" fill="#FFFFFF" transform="translate(0,0)"/>
<path d="" fill="#FFFFFF" transform="translate(0,0)"/>
<path d="" fill="#FFFFFF" transform="translate(0,0)"/>
<path d="" fill="#FFFFFF" transform="translate(0,0)"/>
<path d="" fill="#FFFFFF" transform="translate(0,0)"/>
<path d="" fill="#FFFFFF" transform="translate(0,0)"/>
<path d="" fill="#FFFFFF" transform="translate(0,0)"/>
<path d="" fill="#FFFFFF" transform="translate(0,0)"/>
<path d="" fill="#FFFFFF" transform="translate(0,0)"/>
<path d="" fill="#FFFFFF" transform="translate(0,0)"/>
<path d="" fill="#FFFFFF" transform="translate(0,0)"/>
<path d="" fill="#FFFFFF" transform="translate(0,0)"/>
<path d="" fill="#FFFFFF" transform="translate(0,0)"/>
<path d="" fill="#FFFFFF" transform="translate(0,0)"/>
<path d="" fill="#FFFFFF" transform="translate(0,0)"/>
<path d="" fill="#FFFFFF" transform="translate(0,0)"/>
<path d="" fill="#FFFFFF" transform="translate(0,0)"/>
<path d="" fill="#FFFFFF" transform="translate(0,0)"/>
<path d="" fill="#FFFFFF" transform="translate(0,0)"/>
<path d="" fill="#FFFFFF" transform="translate(0,0)"/>
<path d="" fill="#FFFFFF" transform="translate(0,0)"/>
</svg>
