<?xml version="1.0" encoding="UTF-8"?>
<svg version="1.1" xmlns="http://www.w3.org/2000/svg" width="225" height="225">
<path d="M0 0 C7.77608812 6.32053031 13.06701852 14.3490667 14.81640625 24.2578125 C15.33095833 26.99954682 15.33095833 26.99954682 16.62890625 29.3203125 C19.49643927 31.0399459 22.32407833 32.03154219 25.48828125 33.1015625 C34.12214211 36.45201597 39.90789997 44.07923769 43.62890625 52.3203125 C47.96050275 64.57676167 47.15809533 75.01386562 43.62890625 87.3203125 C43.28984017 88.65219954 42.95406263 89.98496153 42.62890625 91.3203125 C41.96890625 91.3203125 41.30890625 91.3203125 40.62890625 91.3203125 C40.44328125 92.0009375 40.25765625 92.6815625 40.06640625 93.3828125 C35.96629119 101.76130849 28.07147046 106.05059039 19.62890625 109.3203125 C13.39418508 111.08452682 7.48493389 111.61014775 1.02929688 111.57910156 C0.11585007 111.5826062 -0.79759674 111.58611084 -1.73872375 111.58972168 C-4.73084316 111.59845867 -7.72272232 111.59271836 -10.71484375 111.5859375 C-12.81034388 111.58728646 -14.90584371 111.58922891 -17.00134277 111.59173584 C-21.3822733 111.59467623 -25.76312199 111.59042442 -30.14404297 111.58105469 C-35.74237331 111.56966087 -41.34051183 111.57622616 -46.93883514 111.58819962 C-51.26268951 111.59544753 -55.58649885 111.59311683 -59.91035461 111.58794403 C-61.97390262 111.58661564 -64.03745479 111.58822665 -66.10099792 111.59290314 C-68.99126927 111.5980167 -71.88123558 111.59019063 -74.77148438 111.57910156 C-76.03421928 111.58517426 -76.03421928 111.58517426 -77.32246399 111.59136963 C-88.16355541 111.51482128 -97.35658475 108.97900131 -105.41796875 101.39453125 C-113.61445386 92.37489485 -116.89308348 83.25747773 -116.62109375 71.0859375 C-115.89520674 63.0558124 -112.96010397 54.31405017 -106.71484375 48.87890625 C-106.16828125 48.42644531 -105.62171875 47.97398438 -105.05859375 47.5078125 C-102.95978092 45.55210055 -102.40717462 44.75813998 -102.16796875 41.85546875 C-102.26324043 39.96856025 -102.36231505 38.0818406 -102.46484375 36.1953125 C-102.21855127 28.642343 -97.35858935 22.73093183 -92.1171875 17.6953125 C-87.71793569 14.23102472 -84.64953279 14.23040795 -79.05859375 14.3203125 C-75.0655157 14.22250141 -72.1759545 14.0597261 -69.11328125 11.24609375 C-67.98677682 9.49346244 -66.91230124 7.70636353 -65.890625 5.890625 C-61.27461366 -1.91743531 -51.16295645 -5.98343636 -42.796875 -8.43359375 C-27.81614247 -11.79661534 -12.55985819 -8.89742838 0 0 Z M-59.890625 12.44140625 C-61.47806097 14.45606773 -62.32948143 16.42344814 -63.37109375 18.7578125 C-64.53125 20.80078125 -64.53125 20.80078125 -66.37109375 22.3203125 C-70.31069495 22.73713037 -73.73134264 22.57748415 -77.6796875 22.2109375 C-82.78778509 22.36228854 -85.429547 24.43410675 -89.015625 27.91796875 C-93.07258969 33.00613517 -93.35453054 35.60138874 -92.80859375 41.9453125 C-92.72098457 48.49578378 -92.72098457 48.49578378 -95.453125 51.9609375 C-97.23194815 53.45066933 -99.04267098 54.9031151 -100.8828125 56.31640625 C-105.8121213 60.28616357 -107.374135 65.08318942 -108.30859375 71.1953125 C-108.82673723 79.87089429 -105.92390298 86.68493321 -100.3984375 93.2734375 C-95.53328271 98.18546276 -90.41415964 101.84010346 -83.37109375 102.3203125 C-82.65306076 102.48651093 -81.93502777 102.65270935 -81.19523621 102.82394409 C-77.59958188 103.45591264 -74.07234476 103.45975132 -70.43481445 103.44970703 C-69.65035446 103.45145935 -68.86589447 103.45321167 -68.05766296 103.45501709 C-65.47071096 103.45940877 -62.88382768 103.45650562 -60.296875 103.453125 C-58.48951708 103.45379915 -56.68215925 103.4547701 -54.87480164 103.45602417 C-51.08620338 103.45749779 -47.29762871 103.45535859 -43.5090332 103.45068359 C-38.67525747 103.44500694 -33.84153752 103.44825432 -29.00776386 103.45425606 C-25.27320443 103.45788817 -21.53865798 103.4567106 -17.80409813 103.45412827 C-16.02327658 103.45346525 -14.24245382 103.45426534 -12.46163368 103.45660782 C7.87999408 103.54860571 7.87999408 103.54860571 26.31640625 95.6328125 C33.69763827 88.25158048 37.8930291 80.18849924 39.00390625 69.8203125 C37.86871391 59.22518398 33.55636629 50.48192372 25.421875 43.3984375 C21.57409412 40.6760146 18.42830644 39.22757155 13.81640625 38.3203125 C11.55859375 37.671875 11.55859375 37.671875 9.62890625 36.3203125 C8.20062628 32.8978303 7.4026376 29.5245542 6.58203125 25.91015625 C3.83433345 15.56124526 -4.63078696 7.97868275 -13.37109375 2.3203125 C-29.57724144 -6.28090113 -47.74930627 0.02225414 -59.890625 12.44140625 Z " fill="#FCDB70" transform="translate(147.37109375,9.6796875)"/>
<path d="M0 0 C1.32 0.66 2.64 1.32 4 2 C4.01458252 2.88260498 4.02916504 3.76520996 4.04418945 4.67456055 C4.10542067 7.96438643 4.1796033 11.2533993 4.26245117 14.54272461 C4.29560557 15.96351202 4.32366692 17.38442813 4.34643555 18.80541992 C4.38015847 20.8539082 4.43247745 22.9012272 4.48828125 24.94921875 C4.51446533 26.17987061 4.54064941 27.41052246 4.56762695 28.6784668 C5.02959973 32.22738812 5.86544547 34.1568715 8 37 C11.13310644 38.56655322 14.43719267 38.34927309 17.875 38.4375 C18.95587891 38.50614258 18.95587891 38.50614258 20.05859375 38.57617188 C22.47560879 38.69149388 22.47560879 38.69149388 26 38 C28.47574073 35.19343615 28.47574073 35.19343615 30 32 C33.28234265 28.71765735 37.39230651 27.19657395 42 27 C47.06073949 28.08661524 50.87634065 29.92984824 54.625 33.5 C56.62942878 38.60218236 56.80859118 43.58753833 56 49 C53.70873692 53.41395912 51.79248233 56.40250589 47 58 C41.43109851 58.49019191 36.57798059 58.71978062 31.4375 56.375 C28.77261045 53.77844095 27.5778518 51.33864295 26 48 C24.70964844 47.97421875 23.41929687 47.9484375 22.08984375 47.921875 C20.37236339 47.86556417 18.65491678 47.80821752 16.9375 47.75 C16.08994141 47.73582031 15.24238281 47.72164062 14.36914062 47.70703125 C8.46063036 47.47890344 4.79223473 46.54075942 0 43 C-5.98429209 35.39731445 -5.21976959 23.25062717 -5.4375 13.9375 C-5.47190186 13.12845215 -5.50630371 12.3194043 -5.54174805 11.48583984 C-5.57389308 7.03305372 -5.42353927 5.51256762 -2.47265625 1.94140625 C-1.65667969 1.30074219 -0.84070313 0.66007813 0 0 Z M35 40 C33.84525388 42.43810155 33.84525388 42.43810155 34 45 C34.87105376 47.38451799 34.87105376 47.38451799 37 49 C40.41094915 50.16585191 40.41094915 50.16585191 44 50 C46.66666667 48.66666667 46.66666667 48.66666667 48 46 C48 42.10163581 47.88164129 39.91102934 45.125 37.0625 C40.55430444 34.77715222 38.36444445 36.72409356 35 40 Z " fill="#FCDB6E" transform="translate(137,136)"/>
<path d="M0 0 C1.875 0.75 1.875 0.75 2.875 2.75 C3.11078364 7.08377477 3.10344912 11.421557 3.11523438 15.76098633 C3.12488569 17.91202266 3.15588134 20.06208084 3.1875 22.21289062 C3.19403592 23.59374435 3.19928408 24.97460489 3.203125 26.35546875 C3.21714355 28.22948364 3.21714355 28.22948364 3.23144531 30.14135742 C2.7299482 35.21850041 1.26144013 39.09521662 -2.0625 43.0625 C-5.48421372 45.86208395 -8.06225055 46.99912578 -12.49609375 46.8828125 C-13.31787109 46.88539063 -14.13964844 46.88796875 -14.98632812 46.890625 C-16.70017266 46.88023019 -18.41403859 46.84646405 -20.12695312 46.7890625 C-22.67975052 46.82104743 -24.7020656 46.93172093 -27.125 47.75 C-28.83535697 49.67568012 -29.89120412 51.50482187 -30.97680664 53.83544922 C-32.39331954 56.19740843 -33.57485149 56.79205452 -36.125 57.75 C-41.69375991 58.41701024 -46.58025508 58.48172128 -51.6875 56.0625 C-54.940782 52.97605297 -56.87872742 50.37850516 -57.55859375 45.8828125 C-57.56710948 39.3257005 -57.4596923 34.84326346 -53.125 29.75 C-49.26947428 27.34970525 -46.02089951 26.71910691 -41.5 26.875 C-35.36331861 28.46599147 -31.76248007 30.49586213 -28.125 35.75 C-27.795 36.41 -27.465 37.07 -27.125 37.75 C-24.54054227 37.8581866 -21.96062648 37.93737237 -19.375 38 C-18.28058594 38.05027344 -18.28058594 38.05027344 -17.1640625 38.1015625 C-13.56022196 38.16708687 -11.57103928 38.09376276 -8.671875 35.859375 C-5.92662762 32.11585584 -5.98003157 29.6960704 -5.9140625 25.0625 C-5.88600463 23.71092517 -5.85734024 22.35936281 -5.828125 21.0078125 C-5.78678134 18.87467659 -5.74989875 16.74177643 -5.72363281 14.60839844 C-5.69609879 12.55094257 -5.65024466 10.49454932 -5.6015625 8.4375 C-5.58174316 7.20386719 -5.56192383 5.97023437 -5.54150391 4.69921875 C-5.40405762 3.72597656 -5.26661133 2.75273437 -5.125 1.75 C-2.125 -0.25 -2.125 -0.25 0 0 Z M-49.125 40.75 C-49.30297389 43.93444653 -49.30297389 43.93444653 -48.125 46.75 C-45.6881237 49.1868763 -44.54833251 49.59077523 -41.125 49.75 C-38.36320716 48.05526349 -36.62676903 46.66499058 -35.0625 43.8125 C-35.16296957 40.49700428 -36.84547795 39.02952205 -39.125 36.75 C-43.46880695 34.14371583 -46.15516541 37.50390173 -49.125 40.75 Z " fill="#FBDA70" transform="translate(89.125,136.25)"/>
<path d="M0 0 C2.475 0.99 2.475 0.99 5 2 C4.9969838 2.69268982 4.99396759 3.38537964 4.99085999 4.09906006 C4.96631815 11.30188691 4.99034636 18.50338486 5.04272461 25.70605469 C5.05978519 28.39512753 5.05956436 31.08337967 5.04467773 33.77246094 C5.02970955 37.63567793 5.05928146 41.49636553 5.09765625 45.359375 C5.08340103 46.5636615 5.06914581 47.767948 5.05445862 49.00872803 C4.89781832 54.79378164 4.89781832 54.79378164 7.55245972 59.59216309 C9.65477791 60.83673092 9.65477791 60.83673092 13 62 C16.4768148 66.05628393 17.13045236 70.78190572 17 76 C16.13424624 80.77425374 14.79591006 83.35332308 11 86.4375 C5.94110419 89.07234157 1.62664258 89.80380608 -4 89 C-8.35984663 87.21262993 -11.09139447 84.54866111 -13 80.25 C-14.71494831 74.64995274 -14.06135008 69.44110519 -11.75 64.125 C-9.73307402 61.67587559 -7.84352132 60.38530526 -5 59 C-4.34 59 -3.68 59 -3 59 C-3.00666183 58.33458694 -3.01332367 57.66917389 -3.02018738 56.9835968 C-3.08656679 50.05690341 -3.13181163 43.1303004 -3.16479492 36.20336914 C-3.17987962 33.61837087 -3.20035002 31.03339818 -3.22631836 28.44848633 C-3.26271442 24.7325204 -3.27972985 21.01689293 -3.29296875 17.30078125 C-3.30845261 16.14540359 -3.32393646 14.99002594 -3.33988953 13.79963684 C-3.34022942 12.17852242 -3.34022942 12.17852242 -3.34057617 10.5246582 C-3.34723801 9.57645706 -3.35389984 8.62825592 -3.36076355 7.65132141 C-2.93297277 4.50740386 -1.78070525 2.59475559 0 0 Z M-6 73 C-4.75406918 76.84162002 -3.66608297 79.1145859 0 81 C2.87347394 80.85983054 4.44804416 80.41396688 6.75 78.6875 C8.65322914 76.11932604 8.65322914 76.11932604 9 73 C6.10532207 68.54984625 6.10532207 68.54984625 1.5 66.25 C-2.33543612 67.40063084 -3.66621567 69.79938149 -6 73 Z " fill="#FCDD72" transform="translate(111,136)"/>
<path d="M0 0 C2.22917864 3.34376796 1.93667934 5.98610631 1.8046875 9.89453125 C2.14341271 13.54598904 3.99218747 15.98828121 6 19 C4.35 18.67 2.7 18.34 1 18 C1.66 19.98 2.32 21.96 3 24 C8.61 24.33 14.22 24.66 20 25 C20 25.66 20 26.32 20 27 C2.52627514 27.75516698 2.52627514 27.75516698 -3 23 C-6.58610592 18.8354899 -6.26693113 15.24964553 -6 10 C-4.35 10 -2.7 10 -1 10 C-1.01160156 9.36191406 -1.02320313 8.72382813 -1.03515625 8.06640625 C-1.04417969 7.24011719 -1.05320313 6.41382813 -1.0625 5.5625 C-1.07410156 4.73878906 -1.08570313 3.91507813 -1.09765625 3.06640625 C-1 1 -1 1 0 0 Z " fill="#F8DC77" transform="translate(140,156)"/>
<path d="M0 0 C0 3.51716303 -0.82445585 4.37121748 -3 7 C-2.01 7.33 -1.02 7.66 0 8 C0 8.66 0 9.32 0 10 C0.99 10.33 1.98 10.66 3 11 C2.52949219 11.53109375 2.05898437 12.0621875 1.57421875 12.609375 C0.95160156 13.31578125 0.32898438 14.0221875 -0.3125 14.75 C-0.92738281 15.44609375 -1.54226562 16.1421875 -2.17578125 16.859375 C-3.87314734 18.85114506 -5.45477809 20.88898915 -7 23 C-7.33 20.03 -7.66 17.06 -8 14 C-8.66 14 -9.32 14 -10 14 C-10.66 13.67 -11.32 13.34 -12 13 C-8.43679155 7.90789714 -4.95258714 3.77339973 0 0 Z " fill="#FADD7F" transform="translate(89,8)"/>
<path d="M0 0 C2.475 0.99 2.475 0.99 5 2 C5 20.48 5 38.96 5 58 C4.67 58 4.34 58 4 58 C3.98969254 57.39056549 3.97938507 56.78113098 3.96876526 56.15322876 C3.86083047 49.82697535 3.74622212 43.50086815 3.62768555 37.17480469 C3.58429484 34.81187999 3.54262287 32.44892309 3.50268555 30.0859375 C3.44508307 26.69521364 3.3813599 23.3046525 3.31640625 19.9140625 C3.29969376 18.85256989 3.28298126 17.79107727 3.26576233 16.69741821 C3.24581711 15.71655243 3.22587189 14.73568665 3.20532227 13.72509766 C3.18977798 12.85905914 3.1742337 11.99302063 3.15821838 11.10073853 C3.12903408 8.94242107 3.12903408 8.94242107 2 7 C1.01 7.33 0.02 7.66 -1 8 C-1.66 7.01 -2.32 6.02 -3 5 C-2.01 3.35 -1.02 1.7 0 0 Z " fill="#F6D67F" transform="translate(111,136)"/>
<path d="M0 0 C0.144375 0.61875 0.28875 1.2375 0.4375 1.875 C0.93152225 4.03258322 0.93152225 4.03258322 2 6 C3.0209375 5.6596875 3.0209375 5.6596875 4.0625 5.3125 C8.15527655 4.87709824 10.33132959 6.20163215 14 8 C13.67 9.32 13.34 10.64 13 12 C12.443125 11.319375 11.88625 10.63875 11.3125 9.9375 C9.16532835 7.682489 9.16532835 7.682489 6.375 8.1875 C4.02157444 8.93353681 4.02157444 8.93353681 2 10 C0.33380554 10.0396713 -1.33391013 10.04384447 -3 10 C-2.67 8.68 -2.34 7.36 -2 6 C-2.99 6 -3.98 6 -5 6 C-5 6.66 -5 7.32 -5 8 C-5.66 7.67 -6.32 7.34 -7 7 C-2.25 1.125 -2.25 1.125 0 0 Z " fill="#F9DF7A" transform="translate(171,165)"/>
<path d="M0 0 C0.66 0 1.32 0 2 0 C2.12375 0.804375 2.2475 1.60875 2.375 2.4375 C2.684375 3.7059375 2.684375 3.7059375 3 5 C3.66 5.33 4.32 5.66 5 6 C5.66 4.35 6.32 2.7 7 1 C8.65 1 10.3 1 12 1 C12 1.99 12 2.98 12 4 C10.68 4 9.36 4 8 4 C8 5.65 8 7.3 8 9 C6.52093108 9.02689216 5.04172517 9.04634621 3.5625 9.0625 C2.32693359 9.07990234 2.32693359 9.07990234 1.06640625 9.09765625 C-1 9 -1 9 -2 8 C-2.1875 5.0625 -2.1875 5.0625 -2 2 C-1.34 1.34 -0.68 0.68 0 0 Z " fill="#FCDC62" transform="translate(108,216)"/>
<path d="M0 0 C2.90802461 2.21928194 4.95312762 3.92969143 7 7 C7 8.32 7 9.64 7 11 C5.1875 11.6875 5.1875 11.6875 3 12 C1.25 10.5625 1.25 10.5625 0 9 C0.66 8.34 1.32 7.68 2 7 C1.34 6.34 0.68 5.68 0 5 C-0.125 2.375 -0.125 2.375 0 0 Z " fill="#FADE80" transform="translate(180,48)"/>
<path d="M0 0 C0.99 0.33 1.98 0.66 3 1 C1.125 5.75 1.125 5.75 0 8 C0.99 8.33 1.98 8.66 3 9 C3 9.99 3 10.98 3 12 C-0.81684226 10.44499019 -3.19195732 7.96404505 -6 5 C-4.68 5.33 -3.36 5.66 -2 6 C-1.67 5.01 -1.34 4.02 -1 3 C-1.66 2.67 -2.32 2.34 -3 2 C-2.01 1.34 -1.02 0.68 0 0 Z " fill="#FBDD81" transform="translate(141,7)"/>
<path d="M0 0 C0.66 0 1.32 0 2 0 C0.40357093 4.78928721 -1.78334107 7.54531758 -6 10.3125 C-8 11 -8 11 -12 10 C-9.03 9.01 -6.06 8.02 -3 7 C-3.66 6.34 -4.32 5.68 -5 5 C-4.625 2.875 -4.625 2.875 -4 1 C-2.68 1.66 -1.36 2.32 0 3 C0 2.01 0 1.02 0 0 Z " fill="#F8E087" transform="translate(89,172)"/>
<path d="M0 0 C-0.66 1.32 -1.32 2.64 -2 4 C-2.66 4 -3.32 4 -4 4 C-4 4.66 -4 5.32 -4 6 C-9.625 9 -9.625 9 -13 9 C-11.92319498 7.86874978 -10.83824365 6.74525081 -9.75 5.625 C-9.14671875 4.99851562 -8.5434375 4.37203125 -7.921875 3.7265625 C-5.46754979 1.52166059 -3.35898172 0 0 0 Z " fill="#F9DF86" transform="translate(63,24)"/>
<path d="M0 0 C6.57142857 5.14285714 6.57142857 5.14285714 8 9 C6.33333333 9 4.66666667 9 3 9 C0 2.25 0 2.25 0 0 Z " fill="#FAE380" transform="translate(148,11)"/>
<path d="M0 0 C1.125 1.6875 1.125 1.6875 2 4 C1.125 6.75 1.125 6.75 0 9 C-1.32 8.67 -2.64 8.34 -4 8 C-4 6.68 -4 5.36 -4 4 C-3.01 3.67 -2.02 3.34 -1 3 C-0.67 2.01 -0.34 1.02 0 0 Z " fill="#FBDC62" transform="translate(179,48)"/>
<path d="M0 0 C3 2 3 2 3.6875 5.125 C3.8421875 6.548125 3.8421875 6.548125 4 8 C4.66 8 5.32 8 6 8 C5.67 8.99 5.34 9.98 5 11 C4.34 10.67 3.68 10.34 3 10 C3 9.34 3 8.68 3 8 C2.34 8 1.68 8 1 8 C0.67 5.36 0.34 2.72 0 0 Z " fill="#FDDD7C" transform="translate(53,180)"/>
<path d="M0 0 C0.99 0.495 0.99 0.495 2 1 C2 2.98 2 4.96 2 7 C2.66 7 3.32 7 4 7 C4 8.32 4 9.64 4 11 C3.34 11 2.68 11 2 11 C1.67 12.32 1.34 13.64 1 15 C0.67 10.05 0.34 5.1 0 0 Z " fill="#FBE152" transform="translate(132,155)"/>
<path d="M0 0 C1.125 1.5625 1.125 1.5625 2 4 C1.125 7.75 1.125 7.75 0 11 C-0.66 10.67 -1.32 10.34 -2 10 C-1.85950482 8.52031676 -1.71245174 7.04125484 -1.5625 5.5625 C-1.48128906 4.73878906 -1.40007812 3.91507813 -1.31640625 3.06640625 C-1 1 -1 1 0 0 Z " fill="#F8DB82" transform="translate(140,156)"/>
<path d="M0 0 C0.99 0.33 1.98 0.66 3 1 C2.01 1.495 2.01 1.495 1 2 C0.690625 2.804375 0.38125 3.60875 0.0625 4.4375 C-1 7 -1 7 -4 9 C-4.33 7.35 -4.66 5.7 -5 4 C-3.35 3.67 -1.7 3.34 0 3 C0 2.01 0 1.02 0 0 Z " fill="#F8E38E" transform="translate(187,99)"/>
<path d="M0 0 C2.475 0.99 2.475 0.99 5 2 C3.68 3.65 2.36 5.3 1 7 C0.34 5.02 -0.32 3.04 -1 1 C-0.67 0.67 -0.34 0.34 0 0 Z " fill="#FAE264" transform="translate(54,35)"/>
<path d="M0 0 C0.33 0.66 0.66 1.32 1 2 C0.01 2.495 0.01 2.495 -1 3 C-2.13350534 5.01669827 -2.13350534 5.01669827 -3 7 C-4.32 6.67 -5.64 6.34 -7 6 C-2.25 1.125 -2.25 1.125 0 0 Z " fill="#FAD581" transform="translate(106,195)"/>
<path d="M0 0 C0.99 0.33 1.98 0.66 3 1 C3 1.66 3 2.32 3 3 C-0.40562852 3.77842938 -3.50765756 4.09978121 -7 4 C-6.67 3.34 -6.34 2.68 -6 2 C-4.34178227 1.62690101 -2.67422986 1.29299023 -1 1 C-0.67 0.67 -0.34 0.34 0 0 Z " fill="#F9E177" transform="translate(117,214)"/>
<path d="M0 0 C0.99 0 1.98 0 3 0 C3 0.66 3 1.32 3 2 C5.31 2.33 7.62 2.66 10 3 C10 3.66 10 4.32 10 5 C8.51793505 4.745504 7.03931385 4.47088238 5.5625 4.1875 C4.73878906 4.03667969 3.91507813 3.88585938 3.06640625 3.73046875 C2.38449219 3.48941406 1.70257813 3.24835937 1 3 C0.67 2.01 0.34 1.02 0 0 Z " fill="#F6E07E" transform="translate(156,44)"/>
<path d="" fill="#FFFFFF" transform="translate(0,0)"/>
<path d="" fill="#FFFFFF" transform="translate(0,0)"/>
<path d="" fill="#FFFFFF" transform="translate(0,0)"/>
<path d="" fill="#FFFFFF" transform="translate(0,0)"/>
<path d="" fill="#FFFFFF" transform="translate(0,0)"/>
<path d="" fill="#FFFFFF" transform="translate(0,0)"/>
<path d="" fill="#FFFFFF" transform="translate(0,0)"/>
<path d="" fill="#FFFFFF" transform="translate(0,0)"/>
<path d="" fill="#FFFFFF" transform="translate(0,0)"/>
<path d="" fill="#FFFFFF" transform="translate(0,0)"/>
<path d="" fill="#FFFFFF" transform="translate(0,0)"/>
<path d="" fill="#FFFFFF" transform="translate(0,0)"/>
<path d="" fill="#FFFFFF" transform="translate(0,0)"/>
<path d="" fill="#FFFFFF" transform="translate(0,0)"/>
<path d="" fill="#FFFFFF" transform="translate(0,0)"/>
<path d="" fill="#FFFFFF" transform="translate(0,0)"/>
<path d="" fill="#FFFFFF" transform="translate(0,0)"/>
<path d="" fill="#FFFFFF" transform="translate(0,0)"/>
<path d="" fill="#FFFFFF" transform="translate(0,0)"/>
<path d="" fill="#FFFFFF" transform="translate(0,0)"/>
<path d="" fill="#FFFFFF" transform="translate(0,0)"/>
<path d="" fill="#FFFFFF" transform="translate(0,0)"/>
<path d="" fill="#FFFFFF" transform="translate(0,0)"/>
<path d="" fill="#FFFFFF" transform="translate(0,0)"/>
<path d="" fill="#FFFFFF" transform="translate(0,0)"/>
<path d="" fill="#FFFFFF" transform="translate(0,0)"/>
<path d="" fill="#FFFFFF" transform="translate(0,0)"/>
<path d="" fill="#FFFFFF" transform="translate(0,0)"/>
<path d="" fill="#FFFFFF" transform="translate(0,0)"/>
<path d="" fill="#FFFFFF" transform="translate(0,0)"/>
<path d="" fill="#FFFFFF" transform="translate(0,0)"/>
<path d="" fill="#FFFFFF" transform="translate(0,0)"/>
<path d="" fill="#FFFFFF" transform="translate(0,0)"/>
<path d="" fill="#FFFFFF" transform="translate(0,0)"/>
<path d="" fill="#FFFFFF" transform="translate(0,0)"/>
<path d="" fill="#FFFFFF" transform="translate(0,0)"/>
<path d="" fill="#FFFFFF" transform="translate(0,0)"/>
<path d="" fill="#FFFFFF" transform="translate(0,0)"/>
<path d="" fill="#FFFFFF" transform="translate(0,0)"/>
<path d="" fill="#FFFFFF" transform="translate(0,0)"/>
<path d="" fill="#FFFFFF" transform="translate(0,0)"/>
<path d="" fill="#FFFFFF" transform="translate(0,0)"/>
<path d="" fill="#FFFFFF" transform="translate(0,0)"/>
<path d="" fill="#FFFFFF" transform="translate(0,0)"/>
<path d="" fill="#FFFFFF" transform="translate(0,0)"/>
<path d="" fill="#FFFFFF" transform="translate(0,0)"/>
<path d="" fill="#FFFFFF" transform="translate(0,0)"/>
<path d="" fill="#FFFFFF" transform="translate(0,0)"/>
<path d="" fill="#FFFFFF" transform="translate(0,0)"/>
<path d="" fill="#FFFFFF" transform="translate(0,0)"/>
<path d="" fill="#FFFFFF" transform="translate(0,0)"/>
<path d="" fill="#FFFFFF" transform="translate(0,0)"/>
<path d="" fill="#FFFFFF" transform="translate(0,0)"/>
<path d="" fill="#FFFFFF" transform="translate(0,0)"/>
<path d="" fill="#FFFFFF" transform="translate(0,0)"/>
<path d="" fill="#FFFFFF" transform="translate(0,0)"/>
<path d="" fill="#FFFFFF" transform="translate(0,0)"/>
<path d="" fill="#FFFFFF" transform="translate(0,0)"/>
<path d="" fill="#FFFFFF" transform="translate(0,0)"/>
<path d="" fill="#FFFFFF" transform="translate(0,0)"/>
<path d="" fill="#FFFFFF" transform="translate(0,0)"/>
<path d="" fill="#FFFFFF" transform="translate(0,0)"/>
<path d="" fill="#FFFFFF" transform="translate(0,0)"/>
<path d="" fill="#FFFFFF" transform="translate(0,0)"/>
<path d="" fill="#FFFFFF" transform="translate(0,0)"/>
<path d="" fill="#FFFFFF" transform="translate(0,0)"/>
<path d="" fill="#FFFFFF" transform="translate(0,0)"/>
<path d="" fill="#FFFFFF" transform="translate(0,0)"/>
<path d="" fill="#FFFFFF" transform="translate(0,0)"/>
<path d="" fill="#FFFFFF" transform="translate(0,0)"/>
<path d="" fill="#FFFFFF" transform="translate(0,0)"/>
<path d="" fill="#FFFFFF" transform="translate(0,0)"/>
<path d="" fill="#FFFFFF" transform="translate(0,0)"/>
<path d="" fill="#FFFFFF" transform="translate(0,0)"/>
<path d="" fill="#FFFFFF" transform="translate(0,0)"/>
</svg>
